<mxfile host="app.diagrams.net" modified="2022-04-02T11:27:27.662Z" agent="5.0 (Windows NT 10.0; Win64; x64) AppleWebKit/537.36 (KHTML, like Gecko) Chrome/99.0.4844.82 Safari/537.36" etag="afG9Nbar1CLfJ7jtwI2q" version="17.2.6" type="github">
  <diagram id="U3FW6_kFK7dBLzgJgBv8" name="Page-1">
    <mxGraphModel dx="3160" dy="1747" grid="1" gridSize="10" guides="1" tooltips="1" connect="1" arrows="1" fold="1" page="1" pageScale="1" pageWidth="827" pageHeight="1169" math="0" shadow="0">
      <root>
        <mxCell id="0" />
        <mxCell id="1" parent="0" />
        <mxCell id="z-WeCfIhU2ebbsGFk7dm-104" value="" style="endArrow=none;dashed=1;html=1;rounded=0;fontFamily=Helvetica;fontSize=13;fontColor=default;strokeWidth=2;entryX=0.5;entryY=1;entryDx=0;entryDy=0;targetPerimeterSpacing=0;" edge="1" parent="1">
          <mxGeometry width="50" height="50" relative="1" as="geometry">
            <mxPoint x="1439" y="2080" as="sourcePoint" />
            <mxPoint x="1438" y="146" as="targetPoint" />
          </mxGeometry>
        </mxCell>
        <mxCell id="z-WeCfIhU2ebbsGFk7dm-103" value="" style="endArrow=none;dashed=1;html=1;rounded=0;fontFamily=Helvetica;fontSize=13;fontColor=default;strokeWidth=2;entryX=0.5;entryY=1;entryDx=0;entryDy=0;targetPerimeterSpacing=0;startArrow=none;" edge="1" parent="1" source="z-WeCfIhU2ebbsGFk7dm-180">
          <mxGeometry width="50" height="50" relative="1" as="geometry">
            <mxPoint x="1139.0000000000002" y="2080" as="sourcePoint" />
            <mxPoint x="1138" y="146" as="targetPoint" />
          </mxGeometry>
        </mxCell>
        <mxCell id="z-WeCfIhU2ebbsGFk7dm-102" value="" style="endArrow=none;dashed=1;html=1;rounded=0;fontFamily=Helvetica;fontSize=13;fontColor=default;strokeWidth=2;entryX=0.5;entryY=1;entryDx=0;entryDy=0;targetPerimeterSpacing=0;startArrow=none;" edge="1" parent="1" source="z-WeCfIhU2ebbsGFk7dm-172">
          <mxGeometry width="50" height="50" relative="1" as="geometry">
            <mxPoint x="839" y="2080" as="sourcePoint" />
            <mxPoint x="838" y="146" as="targetPoint" />
          </mxGeometry>
        </mxCell>
        <mxCell id="z-WeCfIhU2ebbsGFk7dm-101" value="" style="endArrow=none;dashed=1;html=1;rounded=0;fontFamily=Helvetica;fontSize=13;fontColor=default;strokeWidth=2;entryX=0.5;entryY=1;entryDx=0;entryDy=0;targetPerimeterSpacing=0;startArrow=none;" edge="1" parent="1" source="z-WeCfIhU2ebbsGFk7dm-131">
          <mxGeometry width="50" height="50" relative="1" as="geometry">
            <mxPoint x="540" y="2080" as="sourcePoint" />
            <mxPoint x="539" y="146" as="targetPoint" />
          </mxGeometry>
        </mxCell>
        <mxCell id="z-WeCfIhU2ebbsGFk7dm-100" value="" style="endArrow=none;dashed=1;html=1;rounded=0;fontFamily=Helvetica;fontSize=13;fontColor=default;strokeWidth=2;entryX=0.5;entryY=1;entryDx=0;entryDy=0;targetPerimeterSpacing=0;" edge="1" parent="1" target="z-WeCfIhU2ebbsGFk7dm-10">
          <mxGeometry width="50" height="50" relative="1" as="geometry">
            <mxPoint x="240" y="2080" as="sourcePoint" />
            <mxPoint x="261" y="170" as="targetPoint" />
          </mxGeometry>
        </mxCell>
        <UserObject label="User" lucidchartObjectId="pPB6czRxWirM" id="z-WeCfIhU2ebbsGFk7dm-2">
          <mxCell style="html=1;overflow=block;blockSpacing=1;whiteSpace=wrap;fontSize=16.7;fontColor=#3a414a;spacing=0;fillColor=default;strokeWidth=1.5;strokeColor=none;" vertex="1" parent="1">
            <mxGeometry x="178" y="130" width="122" height="53" as="geometry" />
          </mxCell>
        </UserObject>
        <UserObject label="Front-end" lucidchartObjectId="SJB6he9n-Ml0" id="z-WeCfIhU2ebbsGFk7dm-4">
          <mxCell style="html=1;overflow=block;blockSpacing=1;whiteSpace=wrap;fontSize=16.7;fontColor=#3a414a;spacing=9;strokeColor=#3a414a;strokeOpacity=100;rounded=1;absoluteArcSize=1;arcSize=9;strokeWidth=0.8;" vertex="1" parent="1">
            <mxGeometry x="478" y="101" width="120" height="45" as="geometry" />
          </mxCell>
        </UserObject>
        <UserObject label="Back-end" lucidchartObjectId="kKB6vOC7IsKJ" id="z-WeCfIhU2ebbsGFk7dm-8">
          <mxCell style="html=1;overflow=block;blockSpacing=1;whiteSpace=wrap;fontSize=16.7;fontColor=#3a414a;spacing=9;strokeColor=#3a414a;strokeOpacity=100;rounded=1;absoluteArcSize=1;arcSize=9;strokeWidth=0.8;" vertex="1" parent="1">
            <mxGeometry x="778" y="101" width="120" height="45" as="geometry" />
          </mxCell>
        </UserObject>
        <UserObject label="Database" lucidchartObjectId="qKB6y.dagbY_" id="z-WeCfIhU2ebbsGFk7dm-9">
          <mxCell style="html=1;overflow=block;blockSpacing=1;whiteSpace=wrap;fontSize=16.7;fontColor=#3a414a;spacing=9;strokeColor=#3a414a;strokeOpacity=100;rounded=1;absoluteArcSize=1;arcSize=9;strokeWidth=0.8;" vertex="1" parent="1">
            <mxGeometry x="1078" y="101" width="120" height="45" as="geometry" />
          </mxCell>
        </UserObject>
        <UserObject label="" lucidchartObjectId="tOB61bNKTzEP" id="z-WeCfIhU2ebbsGFk7dm-10">
          <mxCell style="html=1;overflow=block;blockSpacing=1;whiteSpace=wrap;shape=image;fontSize=13;spacing=3.8;strokeColor=none;strokeOpacity=100;strokeWidth=0;image=https://images.lucid.app/images/2fe307f6-b154-4cb5-af3e-8fe406fb8aff/content;imageAspect=0;imageBackground=default;" vertex="1" parent="1">
            <mxGeometry x="206" y="80" width="66" height="66" as="geometry" />
          </mxCell>
        </UserObject>
        <UserObject label="" lucidchartObjectId="lUB6qU1DXC0U" id="z-WeCfIhU2ebbsGFk7dm-11">
          <mxCell style="html=1;overflow=block;blockSpacing=1;whiteSpace=wrap;fontSize=16.7;fontColor=#3a414a;spacing=9;strokeColor=#3a414a;strokeOpacity=100;rounded=1;absoluteArcSize=1;arcSize=9;strokeWidth=0.8;" vertex="1" parent="1">
            <mxGeometry x="530" y="183" width="17" height="180" as="geometry" />
          </mxCell>
        </UserObject>
        <UserObject label="" lucidchartObjectId="aVB6HIbY3j~h" id="z-WeCfIhU2ebbsGFk7dm-12">
          <mxCell style="html=1;jettySize=18;whiteSpace=wrap;fontSize=13;strokeColor=#3a414a;strokeOpacity=100;strokeWidth=1.5;rounded=1;arcSize=12;edgeStyle=orthogonalEdgeStyle;startArrow=none;endArrow=block;endFill=1;exitX=1.023;exitY=0.07;exitPerimeter=0;entryX=-0.023;entryY=0.07;entryPerimeter=0;" edge="1" parent="1" source="z-WeCfIhU2ebbsGFk7dm-28" target="z-WeCfIhU2ebbsGFk7dm-11">
            <mxGeometry width="100" height="100" relative="1" as="geometry">
              <Array as="points" />
            </mxGeometry>
          </mxCell>
        </UserObject>
        <mxCell id="z-WeCfIhU2ebbsGFk7dm-13" value="Open any page" style="text;html=1;resizable=0;labelBackgroundColor=default;align=center;verticalAlign=middle;fontColor=#333333;fontSize=13.3;" vertex="1" parent="z-WeCfIhU2ebbsGFk7dm-12">
          <mxGeometry relative="1" as="geometry" />
        </mxCell>
        <UserObject label="" lucidchartObjectId="dWB6JIlR30Hy" id="z-WeCfIhU2ebbsGFk7dm-14">
          <mxCell style="html=1;overflow=block;blockSpacing=1;whiteSpace=wrap;fontSize=16.7;fontColor=#3a414a;spacing=9;strokeColor=#3a414a;strokeOpacity=100;rounded=1;absoluteArcSize=1;arcSize=9;strokeWidth=0.8;" vertex="1" parent="1">
            <mxGeometry x="830" y="183" width="17" height="90" as="geometry" />
          </mxCell>
        </UserObject>
        <UserObject label="" lucidchartObjectId="kWB6~wt7dVkE" id="z-WeCfIhU2ebbsGFk7dm-15">
          <mxCell style="html=1;overflow=block;blockSpacing=1;whiteSpace=wrap;fontSize=16.7;fontColor=#3a414a;spacing=9;strokeColor=#3a414a;strokeOpacity=100;rounded=1;absoluteArcSize=1;arcSize=9;strokeWidth=0.8;" vertex="1" parent="1">
            <mxGeometry x="1130" y="183" width="17" height="90" as="geometry" />
          </mxCell>
        </UserObject>
        <UserObject label="" lucidchartObjectId="tWB64PQ76oqJ" id="z-WeCfIhU2ebbsGFk7dm-16">
          <mxCell style="html=1;jettySize=18;whiteSpace=wrap;fontSize=13;strokeColor=#3a414a;strokeOpacity=100;strokeWidth=1.5;rounded=1;arcSize=12;edgeStyle=orthogonalEdgeStyle;startArrow=none;endArrow=block;endFill=1;exitX=1.023;exitY=0.06;exitPerimeter=0;entryX=-0.023;entryY=0.12;entryPerimeter=0;" edge="1" parent="1" source="z-WeCfIhU2ebbsGFk7dm-11" target="z-WeCfIhU2ebbsGFk7dm-14">
            <mxGeometry width="100" height="100" relative="1" as="geometry">
              <Array as="points" />
            </mxGeometry>
          </mxCell>
        </UserObject>
        <mxCell id="z-WeCfIhU2ebbsGFk7dm-17" value="Create new ID" style="text;html=1;resizable=0;labelBackgroundColor=default;align=center;verticalAlign=middle;fontColor=#333333;fontSize=13.3;" vertex="1" parent="z-WeCfIhU2ebbsGFk7dm-16">
          <mxGeometry relative="1" as="geometry" />
        </mxCell>
        <UserObject label="" lucidchartObjectId="AXB6CfJjLEjt" id="z-WeCfIhU2ebbsGFk7dm-18">
          <mxCell style="html=1;jettySize=18;whiteSpace=wrap;fontSize=13;strokeColor=#3a414a;strokeOpacity=100;strokeWidth=1.5;rounded=1;arcSize=12;edgeStyle=orthogonalEdgeStyle;startArrow=none;endArrow=block;endFill=1;exitX=1.023;exitY=0.12;exitPerimeter=0;entryX=-0.023;entryY=0.12;entryPerimeter=0;" edge="1" parent="1" source="z-WeCfIhU2ebbsGFk7dm-14" target="z-WeCfIhU2ebbsGFk7dm-15">
            <mxGeometry width="100" height="100" relative="1" as="geometry">
              <Array as="points" />
            </mxGeometry>
          </mxCell>
        </UserObject>
        <mxCell id="z-WeCfIhU2ebbsGFk7dm-19" value="Create new ID,Create Data" style="text;html=1;resizable=0;labelBackgroundColor=default;align=center;verticalAlign=middle;fontColor=#333333;fontSize=13.3;" vertex="1" parent="z-WeCfIhU2ebbsGFk7dm-18">
          <mxGeometry relative="1" as="geometry" />
        </mxCell>
        <UserObject label="" lucidchartObjectId="SYB6BYrBhLy~" id="z-WeCfIhU2ebbsGFk7dm-20">
          <mxCell style="html=1;jettySize=18;whiteSpace=wrap;fontSize=13;strokeColor=#3a414a;strokeOpacity=100;strokeWidth=1.5;rounded=1;arcSize=12;edgeStyle=orthogonalEdgeStyle;startArrow=none;endArrow=block;endFill=1;exitX=1.023;exitY=0.133;exitPerimeter=0;entryX=1.023;entryY=0.773;entryPerimeter=0;" edge="1" parent="1" source="z-WeCfIhU2ebbsGFk7dm-15" target="z-WeCfIhU2ebbsGFk7dm-15">
            <mxGeometry width="100" height="100" relative="1" as="geometry">
              <Array as="points">
                <mxPoint x="1191" y="195" />
                <mxPoint x="1191" y="253" />
              </Array>
            </mxGeometry>
          </mxCell>
        </UserObject>
        <mxCell id="z-WeCfIhU2ebbsGFk7dm-21" value="Create new ID and Create Data" style="text;html=1;resizable=0;labelBackgroundColor=default;align=center;verticalAlign=middle;fontColor=#333333;fontSize=13.3;" vertex="1" parent="z-WeCfIhU2ebbsGFk7dm-20">
          <mxGeometry relative="1" as="geometry">
            <mxPoint x="59" as="offset" />
          </mxGeometry>
        </mxCell>
        <UserObject label="" lucidchartObjectId="p3B6E770JkCD" id="z-WeCfIhU2ebbsGFk7dm-22">
          <mxCell style="html=1;jettySize=18;whiteSpace=wrap;fontSize=13;strokeColor=#3a414a;strokeOpacity=100;dashed=1;fixDash=1;dashPattern=8 8;strokeWidth=1.5;rounded=1;arcSize=12;edgeStyle=orthogonalEdgeStyle;startArrow=none;endArrow=block;endFill=1;exitX=-0.023;exitY=0.887;exitPerimeter=0;entryX=1.023;entryY=0.887;entryPerimeter=0;" edge="1" parent="1" source="z-WeCfIhU2ebbsGFk7dm-15" target="z-WeCfIhU2ebbsGFk7dm-14">
            <mxGeometry width="100" height="100" relative="1" as="geometry">
              <Array as="points" />
            </mxGeometry>
          </mxCell>
        </UserObject>
        <mxCell id="z-WeCfIhU2ebbsGFk7dm-23" value="return new ID" style="text;html=1;resizable=0;labelBackgroundColor=default;align=center;verticalAlign=middle;fontColor=#333333;fontSize=13.3;" vertex="1" parent="z-WeCfIhU2ebbsGFk7dm-22">
          <mxGeometry relative="1" as="geometry" />
        </mxCell>
        <UserObject label="" lucidchartObjectId="s3B6QEloMWkg" id="z-WeCfIhU2ebbsGFk7dm-24">
          <mxCell style="html=1;jettySize=18;whiteSpace=wrap;fontSize=13;strokeColor=#3a414a;strokeOpacity=100;dashed=1;fixDash=1;dashPattern=8 8;strokeWidth=1.5;rounded=1;arcSize=12;edgeStyle=orthogonalEdgeStyle;startArrow=none;endArrow=block;endFill=1;exitX=-0.023;exitY=0.9;exitPerimeter=0;entryX=1.023;entryY=0.45;entryPerimeter=0;" edge="1" parent="1" source="z-WeCfIhU2ebbsGFk7dm-14" target="z-WeCfIhU2ebbsGFk7dm-11">
            <mxGeometry width="100" height="100" relative="1" as="geometry">
              <Array as="points" />
            </mxGeometry>
          </mxCell>
        </UserObject>
        <mxCell id="z-WeCfIhU2ebbsGFk7dm-25" value="return new ID" style="text;html=1;resizable=0;labelBackgroundColor=default;align=center;verticalAlign=middle;fontColor=#333333;fontSize=13.3;" vertex="1" parent="z-WeCfIhU2ebbsGFk7dm-24">
          <mxGeometry relative="1" as="geometry" />
        </mxCell>
        <UserObject label="" lucidchartObjectId="Z4B6qVglUWGX" id="z-WeCfIhU2ebbsGFk7dm-26">
          <mxCell style="html=1;jettySize=18;whiteSpace=wrap;fontSize=13;strokeColor=#3a414a;strokeOpacity=100;strokeWidth=1.5;rounded=1;arcSize=12;edgeStyle=orthogonalEdgeStyle;startArrow=none;endArrow=block;endFill=1;exitX=1.023;exitY=0.567;exitPerimeter=0;entryX=1.023;entryY=0.897;entryPerimeter=0;" edge="1" parent="1" source="z-WeCfIhU2ebbsGFk7dm-11" target="z-WeCfIhU2ebbsGFk7dm-11">
            <mxGeometry width="100" height="100" relative="1" as="geometry">
              <Array as="points">
                <mxPoint x="577" y="285" />
                <mxPoint x="577" y="344" />
              </Array>
            </mxGeometry>
          </mxCell>
        </UserObject>
        <mxCell id="z-WeCfIhU2ebbsGFk7dm-27" value="&lt;div style=&quot;display: flex ; justify-content: center ; text-align: center ; align-items: baseline ; font-size: 0 ; line-height: 1.25 ; margin-top: -2px&quot;&gt;&lt;span&gt;&lt;span style=&quot;font-size: 11.7px ; color: rgb(51 , 51 , 51)&quot;&gt;Set &lt;/span&gt;&lt;span style=&quot;font-size: 13.3px ; color: rgb(0 , 0 , 0)&quot;&gt;sessionStorage  &lt;/span&gt;&lt;span style=&quot;font-size: 11.7px ; color: rgb(51 , 51 , 51)&quot;&gt;ID&lt;/span&gt;&lt;span style=&quot;font-size: 13.3px ; color: rgb(0 , 0 , 0)&quot;&gt; = return id&lt;/span&gt;&lt;/span&gt;&lt;/div&gt;" style="text;html=1;resizable=0;labelBackgroundColor=default;align=center;verticalAlign=middle;" vertex="1" parent="z-WeCfIhU2ebbsGFk7dm-26">
          <mxGeometry relative="1" as="geometry">
            <mxPoint x="73" as="offset" />
          </mxGeometry>
        </mxCell>
        <UserObject label="" lucidchartObjectId="M8B6G7-qKfX~" id="z-WeCfIhU2ebbsGFk7dm-28">
          <mxCell style="html=1;overflow=block;blockSpacing=1;whiteSpace=wrap;fontSize=16.7;fontColor=#3a414a;spacing=9;strokeColor=#3a414a;strokeOpacity=100;rounded=1;absoluteArcSize=1;arcSize=9;strokeWidth=0.8;" vertex="1" parent="1">
            <mxGeometry x="231" y="183" width="17" height="180" as="geometry" />
          </mxCell>
        </UserObject>
        <UserObject label="" lucidchartObjectId="b9B6C1zwckV5" id="z-WeCfIhU2ebbsGFk7dm-29">
          <mxCell style="html=1;jettySize=18;whiteSpace=wrap;overflow=block;blockSpacing=1;fontSize=13;strokeColor=#3a414a;strokeOpacity=100;dashed=1;fixDash=1;dashPattern=8 8;strokeWidth=1.5;rounded=1;arcSize=12;edgeStyle=orthogonalEdgeStyle;startArrow=none;endArrow=block;endFill=1;exitX=-0.023;exitY=0.908;exitPerimeter=0;entryX=1.023;entryY=0.908;entryPerimeter=0;" edge="1" parent="1" source="z-WeCfIhU2ebbsGFk7dm-11" target="z-WeCfIhU2ebbsGFk7dm-28">
            <mxGeometry width="100" height="100" relative="1" as="geometry">
              <Array as="points" />
            </mxGeometry>
          </mxCell>
        </UserObject>
        <mxCell id="z-WeCfIhU2ebbsGFk7dm-30" value="Display page" style="text;html=1;resizable=0;labelBackgroundColor=default;align=center;verticalAlign=middle;fontColor=#333333;fontSize=13.3;" vertex="1" parent="z-WeCfIhU2ebbsGFk7dm-29">
          <mxGeometry relative="1" as="geometry" />
        </mxCell>
        <UserObject label="" lucidchartObjectId="j~B61xOkIK1Z" id="z-WeCfIhU2ebbsGFk7dm-31">
          <mxCell style="html=1;overflow=block;blockSpacing=1;whiteSpace=wrap;fontSize=16.7;fontColor=#3a414a;spacing=9;strokeColor=#3a414a;strokeOpacity=100;rounded=1;absoluteArcSize=1;arcSize=9;strokeWidth=0.8;" vertex="1" parent="1">
            <mxGeometry x="230" y="393" width="17" height="135" as="geometry" />
          </mxCell>
        </UserObject>
        <UserObject label="" lucidchartObjectId="aaC6KtELH4f6" id="z-WeCfIhU2ebbsGFk7dm-32">
          <mxCell style="html=1;overflow=block;blockSpacing=1;whiteSpace=wrap;fontSize=16.7;fontColor=#3a414a;spacing=9;strokeColor=#3a414a;strokeOpacity=100;rounded=1;absoluteArcSize=1;arcSize=9;strokeWidth=0.8;" vertex="1" parent="1">
            <mxGeometry x="530" y="393" width="17" height="135" as="geometry" />
          </mxCell>
        </UserObject>
        <UserObject label="" lucidchartObjectId="oaC65LSfD_sF" id="z-WeCfIhU2ebbsGFk7dm-33">
          <mxCell style="html=1;jettySize=18;whiteSpace=wrap;fontSize=13;strokeColor=#3a414a;strokeOpacity=100;strokeWidth=1.5;rounded=1;arcSize=12;edgeStyle=orthogonalEdgeStyle;startArrow=none;endArrow=block;endFill=1;exitX=1.023;exitY=0.163;exitPerimeter=0;entryX=-0.023;entryY=0.163;entryPerimeter=0;" edge="1" parent="1" source="z-WeCfIhU2ebbsGFk7dm-31" target="z-WeCfIhU2ebbsGFk7dm-32">
            <mxGeometry width="100" height="100" relative="1" as="geometry">
              <Array as="points" />
            </mxGeometry>
          </mxCell>
        </UserObject>
        <mxCell id="z-WeCfIhU2ebbsGFk7dm-34" value="Open Model page" style="text;html=1;resizable=0;labelBackgroundColor=default;align=center;verticalAlign=middle;fontColor=#333333;fontSize=13.3;" vertex="1" parent="z-WeCfIhU2ebbsGFk7dm-33">
          <mxGeometry relative="1" as="geometry" />
        </mxCell>
        <UserObject label="" lucidchartObjectId="UaC6YUdy9~tq" id="z-WeCfIhU2ebbsGFk7dm-35">
          <mxCell style="html=1;jettySize=18;whiteSpace=wrap;fontSize=13;strokeColor=#3a414a;strokeOpacity=100;dashed=1;fixDash=1;dashPattern=8 8;strokeWidth=1.5;rounded=1;arcSize=12;edgeStyle=orthogonalEdgeStyle;startArrow=none;endArrow=block;endFill=1;exitX=-0.023;exitY=0.822;exitPerimeter=0;entryX=1.023;entryY=0.822;entryPerimeter=0;" edge="1" parent="1" source="z-WeCfIhU2ebbsGFk7dm-32" target="z-WeCfIhU2ebbsGFk7dm-31">
            <mxGeometry width="100" height="100" relative="1" as="geometry">
              <Array as="points" />
            </mxGeometry>
          </mxCell>
        </UserObject>
        <mxCell id="z-WeCfIhU2ebbsGFk7dm-36" value="Display Model page" style="text;html=1;resizable=0;labelBackgroundColor=default;align=center;verticalAlign=middle;fontColor=#333333;fontSize=13.3;" vertex="1" parent="z-WeCfIhU2ebbsGFk7dm-35">
          <mxGeometry relative="1" as="geometry" />
        </mxCell>
        <UserObject label="" lucidchartObjectId="MdC6qle6v911" id="z-WeCfIhU2ebbsGFk7dm-37">
          <mxCell style="html=1;overflow=block;blockSpacing=1;whiteSpace=wrap;fontSize=16.7;fontColor=#3a414a;spacing=9;strokeColor=#3a414a;strokeOpacity=100;rounded=1;absoluteArcSize=1;arcSize=9;strokeWidth=0.8;" vertex="1" parent="1">
            <mxGeometry x="231" y="558" width="17" height="1132" as="geometry" />
          </mxCell>
        </UserObject>
        <UserObject label="" lucidchartObjectId="4dC6SYdGO_m6" id="z-WeCfIhU2ebbsGFk7dm-38">
          <mxCell style="html=1;overflow=block;blockSpacing=1;whiteSpace=wrap;fontSize=16.7;fontColor=#3a414a;spacing=9;strokeColor=#3a414a;strokeOpacity=100;rounded=1;absoluteArcSize=1;arcSize=9;strokeWidth=0.8;" vertex="1" parent="1">
            <mxGeometry x="531" y="558" width="17" height="120" as="geometry" />
          </mxCell>
        </UserObject>
        <UserObject label="" lucidchartObjectId="IyC6M1uThLOs" id="z-WeCfIhU2ebbsGFk7dm-39">
          <mxCell style="html=1;jettySize=18;whiteSpace=wrap;fontSize=13;strokeColor=#3a414a;strokeOpacity=100;strokeWidth=1.5;rounded=1;arcSize=12;edgeStyle=orthogonalEdgeStyle;startArrow=none;endArrow=block;endFill=1;entryX=-0.023;entryY=0.15;entryPerimeter=0;" edge="1" parent="1" target="z-WeCfIhU2ebbsGFk7dm-38">
            <mxGeometry width="100" height="100" relative="1" as="geometry">
              <Array as="points" />
              <mxPoint x="250" y="576" as="sourcePoint" />
            </mxGeometry>
          </mxCell>
        </UserObject>
        <mxCell id="z-WeCfIhU2ebbsGFk7dm-40" value="Open Graph page" style="text;html=1;resizable=0;labelBackgroundColor=default;align=center;verticalAlign=middle;fontColor=#333333;fontSize=13.3;" vertex="1" parent="z-WeCfIhU2ebbsGFk7dm-39">
          <mxGeometry relative="1" as="geometry" />
        </mxCell>
        <UserObject label="External APIs" lucidchartObjectId="4zC6Pg.s3ahT" id="z-WeCfIhU2ebbsGFk7dm-42">
          <mxCell style="html=1;overflow=block;blockSpacing=1;whiteSpace=wrap;fontSize=16.7;fontColor=#12302e;spacing=9;strokeColor=#3a414a;strokeOpacity=100;rounded=1;absoluteArcSize=1;arcSize=9;strokeWidth=0.8;" vertex="1" parent="1">
            <mxGeometry x="1378" y="101" width="120" height="45" as="geometry" />
          </mxCell>
        </UserObject>
        <UserObject label="" lucidchartObjectId="jDC6Xywz4lIS" id="z-WeCfIhU2ebbsGFk7dm-43">
          <mxCell style="html=1;jettySize=18;whiteSpace=wrap;fontSize=13;strokeColor=#3a414a;strokeOpacity=100;strokeWidth=1.5;rounded=1;arcSize=12;edgeStyle=orthogonalEdgeStyle;startArrow=none;endArrow=block;endFill=1;exitX=1.023;exitY=0.392;exitPerimeter=0;entryX=-0.023;entryY=0.189;entryPerimeter=0;" edge="1" parent="1" source="z-WeCfIhU2ebbsGFk7dm-38" target="z-WeCfIhU2ebbsGFk7dm-45">
            <mxGeometry width="100" height="100" relative="1" as="geometry">
              <Array as="points" />
            </mxGeometry>
          </mxCell>
        </UserObject>
        <mxCell id="z-WeCfIhU2ebbsGFk7dm-44" value="Request daily COVID-19 data from Department of Disease Control Open data " style="text;html=1;resizable=0;labelBackgroundColor=default;align=center;verticalAlign=middle;fontColor=#282c33;fontSize=13.3;" vertex="1" parent="z-WeCfIhU2ebbsGFk7dm-43">
          <mxGeometry x="-0.12103174603174616" relative="1" as="geometry" />
        </mxCell>
        <UserObject label="" lucidchartObjectId="iGC6CSA5eWOu" id="z-WeCfIhU2ebbsGFk7dm-45">
          <mxCell style="html=1;overflow=block;blockSpacing=1;whiteSpace=wrap;fontSize=16.7;fontColor=#3a414a;spacing=9;strokeColor=#3a414a;strokeOpacity=100;rounded=1;absoluteArcSize=1;arcSize=9;strokeWidth=0.8;" vertex="1" parent="1">
            <mxGeometry x="1430" y="588" width="17" height="90" as="geometry" />
          </mxCell>
        </UserObject>
        <UserObject label="" lucidchartObjectId="zGC6CNJoKBSS" id="z-WeCfIhU2ebbsGFk7dm-46">
          <mxCell style="html=1;jettySize=18;whiteSpace=wrap;fontSize=13;strokeColor=#3a414a;strokeOpacity=100;dashed=1;fixDash=1;dashPattern=8 8;strokeWidth=1.5;rounded=1;arcSize=12;edgeStyle=orthogonalEdgeStyle;startArrow=none;endArrow=block;endFill=1;exitX=-0.023;exitY=0.833;exitPerimeter=0;entryX=1.023;entryY=0.833;entryPerimeter=0;" edge="1" parent="1" source="z-WeCfIhU2ebbsGFk7dm-45" target="z-WeCfIhU2ebbsGFk7dm-38">
            <mxGeometry width="100" height="100" relative="1" as="geometry">
              <Array as="points" />
            </mxGeometry>
          </mxCell>
        </UserObject>
        <mxCell id="z-WeCfIhU2ebbsGFk7dm-47" value="&lt;div style=&quot;display: flex; justify-content: center; text-align: center; align-items: baseline; font-size: 0; line-height: 1.25;margin-top: -2px;&quot;&gt;&lt;span&gt;&lt;span style=&quot;font-size:13.3px;color:#333333;&quot;&gt;Response&lt;/span&gt;&lt;span style=&quot;font-size:13.3px;color:#282c33;&quot;&gt; daily COVID-19 data from Department of Disease Control Open data &lt;/span&gt;&lt;/span&gt;&lt;/div&gt;" style="text;html=1;resizable=0;labelBackgroundColor=default;align=center;verticalAlign=middle;" vertex="1" parent="z-WeCfIhU2ebbsGFk7dm-46">
          <mxGeometry x="0.11876417233560077" relative="1" as="geometry" />
        </mxCell>
        <UserObject label="" lucidchartObjectId="jIC6FQ-HDYhO" id="z-WeCfIhU2ebbsGFk7dm-48">
          <mxCell style="html=1;jettySize=18;whiteSpace=wrap;overflow=block;blockSpacing=1;fontSize=13;strokeColor=#3a414a;strokeOpacity=100;dashed=1;fixDash=1;dashPattern=8 8;strokeWidth=1.5;rounded=1;arcSize=12;edgeStyle=orthogonalEdgeStyle;startArrow=none;endArrow=block;endFill=1;exitX=-0.023;exitY=0.8;exitPerimeter=0;entryX=0.954;entryY=0.099;entryPerimeter=0;entryDx=0;entryDy=0;" edge="1" parent="1" source="z-WeCfIhU2ebbsGFk7dm-38" target="z-WeCfIhU2ebbsGFk7dm-37">
            <mxGeometry width="100" height="100" relative="1" as="geometry">
              <Array as="points" />
            </mxGeometry>
          </mxCell>
        </UserObject>
        <mxCell id="z-WeCfIhU2ebbsGFk7dm-49" value="Display Daily data" style="text;html=1;resizable=0;labelBackgroundColor=default;align=center;verticalAlign=middle;fontColor=#333333;fontSize=13.3;" vertex="1" parent="z-WeCfIhU2ebbsGFk7dm-48">
          <mxGeometry relative="1" as="geometry" />
        </mxCell>
        <UserObject label="" lucidchartObjectId="uJC69J0~Hug2" id="z-WeCfIhU2ebbsGFk7dm-50">
          <mxCell style="html=1;overflow=block;blockSpacing=1;whiteSpace=wrap;fontSize=16.7;fontColor=#3a414a;spacing=9;strokeColor=#3a414a;strokeOpacity=100;rounded=1;absoluteArcSize=1;arcSize=9;strokeWidth=0.8;" vertex="1" parent="1">
            <mxGeometry x="531" y="708" width="17" height="90" as="geometry" />
          </mxCell>
        </UserObject>
        <UserObject label="" lucidchartObjectId="OJC6vx6Ug9Gb" id="z-WeCfIhU2ebbsGFk7dm-51">
          <mxCell style="html=1;overflow=block;blockSpacing=1;whiteSpace=wrap;fontSize=16.7;fontColor=#3a414a;spacing=9;strokeColor=#3a414a;strokeOpacity=100;rounded=1;absoluteArcSize=1;arcSize=9;strokeWidth=0.8;" vertex="1" parent="1">
            <mxGeometry x="830" y="708" width="17" height="90" as="geometry" />
          </mxCell>
        </UserObject>
        <UserObject label="" lucidchartObjectId="9JC6gtZKBedo" id="z-WeCfIhU2ebbsGFk7dm-52">
          <mxCell style="html=1;jettySize=18;whiteSpace=wrap;fontSize=13;strokeColor=#3a414a;strokeOpacity=100;strokeWidth=1.5;rounded=1;arcSize=12;edgeStyle=orthogonalEdgeStyle;startArrow=none;endArrow=block;endFill=1;exitX=1.023;exitY=0.2;exitPerimeter=0;entryX=-0.023;entryY=0.2;entryPerimeter=0;" edge="1" parent="1" source="z-WeCfIhU2ebbsGFk7dm-50" target="z-WeCfIhU2ebbsGFk7dm-51">
            <mxGeometry width="100" height="100" relative="1" as="geometry">
              <Array as="points" />
            </mxGeometry>
          </mxCell>
        </UserObject>
        <mxCell id="z-WeCfIhU2ebbsGFk7dm-53" value="Request  Model Data Month" style="text;html=1;resizable=0;labelBackgroundColor=default;align=center;verticalAlign=middle;fontColor=#333333;fontSize=13.3;" vertex="1" parent="z-WeCfIhU2ebbsGFk7dm-52">
          <mxGeometry relative="1" as="geometry" />
        </mxCell>
        <UserObject label="" lucidchartObjectId="OMC6ke~POsoc" id="z-WeCfIhU2ebbsGFk7dm-54">
          <mxCell style="html=1;overflow=block;blockSpacing=1;whiteSpace=wrap;fontSize=16.7;fontColor=#3a414a;spacing=9;strokeColor=#3a414a;strokeOpacity=100;rounded=1;absoluteArcSize=1;arcSize=9;strokeWidth=0.8;" vertex="1" parent="1">
            <mxGeometry x="1130" y="708" width="17" height="90" as="geometry" />
          </mxCell>
        </UserObject>
        <UserObject label="" lucidchartObjectId="8MC6X_tt5UQK" id="z-WeCfIhU2ebbsGFk7dm-55">
          <mxCell style="html=1;jettySize=18;whiteSpace=wrap;fontSize=13;strokeColor=#3a414a;strokeOpacity=100;strokeWidth=1.5;rounded=1;arcSize=12;edgeStyle=orthogonalEdgeStyle;startArrow=none;endArrow=block;endFill=1;exitX=1.023;exitY=0.2;exitPerimeter=0;entryX=-0.023;entryY=0.2;entryPerimeter=0;" edge="1" parent="1" source="z-WeCfIhU2ebbsGFk7dm-51" target="z-WeCfIhU2ebbsGFk7dm-54">
            <mxGeometry width="100" height="100" relative="1" as="geometry">
              <Array as="points" />
            </mxGeometry>
          </mxCell>
        </UserObject>
        <mxCell id="z-WeCfIhU2ebbsGFk7dm-56" value="Request  Model Data Month" style="text;html=1;resizable=0;labelBackgroundColor=default;align=center;verticalAlign=middle;fontColor=#333333;fontSize=13.3;" vertex="1" parent="z-WeCfIhU2ebbsGFk7dm-55">
          <mxGeometry relative="1" as="geometry" />
        </mxCell>
        <UserObject label="" lucidchartObjectId="pNC6ErK1AbHk" id="z-WeCfIhU2ebbsGFk7dm-57">
          <mxCell style="html=1;jettySize=18;whiteSpace=wrap;fontSize=13;strokeColor=#3a414a;strokeOpacity=100;dashed=1;fixDash=1;dashPattern=8 8;strokeWidth=1.5;rounded=1;arcSize=12;edgeStyle=orthogonalEdgeStyle;startArrow=none;endArrow=block;endFill=1;exitX=-0.023;exitY=0.789;exitPerimeter=0;entryX=1.023;entryY=0.789;entryPerimeter=0;" edge="1" parent="1" source="z-WeCfIhU2ebbsGFk7dm-54" target="z-WeCfIhU2ebbsGFk7dm-51">
            <mxGeometry width="100" height="100" relative="1" as="geometry">
              <Array as="points" />
            </mxGeometry>
          </mxCell>
        </UserObject>
        <mxCell id="z-WeCfIhU2ebbsGFk7dm-58" value="Response  Model Data Month" style="text;html=1;resizable=0;labelBackgroundColor=default;align=center;verticalAlign=middle;fontColor=#333333;fontSize=13.3;" vertex="1" parent="z-WeCfIhU2ebbsGFk7dm-57">
          <mxGeometry relative="1" as="geometry" />
        </mxCell>
        <UserObject label="" lucidchartObjectId="0NC6PVne5uIt" id="z-WeCfIhU2ebbsGFk7dm-59">
          <mxCell style="html=1;jettySize=18;whiteSpace=wrap;fontSize=13;strokeColor=#3a414a;strokeOpacity=100;dashed=1;fixDash=1;dashPattern=8 8;strokeWidth=1.5;rounded=1;arcSize=12;edgeStyle=orthogonalEdgeStyle;startArrow=none;endArrow=block;endFill=1;exitX=-0.023;exitY=0.789;exitPerimeter=0;entryX=1.023;entryY=0.789;entryPerimeter=0;" edge="1" parent="1" source="z-WeCfIhU2ebbsGFk7dm-51" target="z-WeCfIhU2ebbsGFk7dm-50">
            <mxGeometry width="100" height="100" relative="1" as="geometry">
              <Array as="points" />
            </mxGeometry>
          </mxCell>
        </UserObject>
        <mxCell id="z-WeCfIhU2ebbsGFk7dm-60" value="Response  Model Data Month" style="text;html=1;resizable=0;labelBackgroundColor=default;align=center;verticalAlign=middle;fontColor=#333333;fontSize=13.3;" vertex="1" parent="z-WeCfIhU2ebbsGFk7dm-59">
          <mxGeometry relative="1" as="geometry" />
        </mxCell>
        <UserObject label="" lucidchartObjectId="HOC6VIvEA0Bt" id="z-WeCfIhU2ebbsGFk7dm-61">
          <mxCell style="html=1;jettySize=18;whiteSpace=wrap;fontSize=13;strokeColor=#3a414a;strokeOpacity=100;dashed=1;fixDash=1;dashPattern=8 8;strokeWidth=1.5;rounded=1;arcSize=12;edgeStyle=orthogonalEdgeStyle;startArrow=none;endArrow=block;endFill=1;exitX=-0.023;exitY=0.778;exitPerimeter=0;" edge="1" parent="1" source="z-WeCfIhU2ebbsGFk7dm-50">
            <mxGeometry width="100" height="100" relative="1" as="geometry">
              <Array as="points" />
              <mxPoint x="250" y="778" as="targetPoint" />
            </mxGeometry>
          </mxCell>
        </UserObject>
        <mxCell id="z-WeCfIhU2ebbsGFk7dm-62" value="Display Model Data Month" style="text;html=1;resizable=0;labelBackgroundColor=default;align=center;verticalAlign=middle;fontColor=#333333;fontSize=13.3;" vertex="1" parent="z-WeCfIhU2ebbsGFk7dm-61">
          <mxGeometry relative="1" as="geometry" />
        </mxCell>
        <UserObject label="" lucidchartObjectId="5uE6oH6iUdjr" id="z-WeCfIhU2ebbsGFk7dm-63">
          <mxCell style="html=1;overflow=block;blockSpacing=1;whiteSpace=wrap;fontSize=16.7;fontColor=#3a414a;spacing=9;strokeColor=#3a414a;strokeOpacity=100;rounded=1;absoluteArcSize=1;arcSize=9;strokeWidth=0.8;" vertex="1" parent="1">
            <mxGeometry x="531" y="828" width="17" height="90" as="geometry" />
          </mxCell>
        </UserObject>
        <UserObject label="" lucidchartObjectId="kvE6bfW-4E6I" id="z-WeCfIhU2ebbsGFk7dm-64">
          <mxCell style="html=1;overflow=block;blockSpacing=1;whiteSpace=wrap;fontSize=16.7;fontColor=#3a414a;spacing=9;strokeColor=#3a414a;strokeOpacity=100;rounded=1;absoluteArcSize=1;arcSize=9;strokeWidth=0.8;" vertex="1" parent="1">
            <mxGeometry x="830" y="828" width="17" height="90" as="geometry" />
          </mxCell>
        </UserObject>
        <UserObject label="" lucidchartObjectId="pvE6NMaVjhWA" id="z-WeCfIhU2ebbsGFk7dm-65">
          <mxCell style="html=1;overflow=block;blockSpacing=1;whiteSpace=wrap;fontSize=16.7;fontColor=#3a414a;spacing=9;strokeColor=#3a414a;strokeOpacity=100;rounded=1;absoluteArcSize=1;arcSize=9;strokeWidth=0.8;" vertex="1" parent="1">
            <mxGeometry x="1130" y="828" width="17" height="90" as="geometry" />
          </mxCell>
        </UserObject>
        <UserObject label="" lucidchartObjectId="CvE6_EGG~OAG" id="z-WeCfIhU2ebbsGFk7dm-66">
          <mxCell style="html=1;jettySize=18;whiteSpace=wrap;fontSize=13;strokeColor=#3a414a;strokeOpacity=100;strokeWidth=1.5;rounded=1;arcSize=12;edgeStyle=orthogonalEdgeStyle;startArrow=none;endArrow=block;endFill=1;exitX=1.023;exitY=0.189;exitPerimeter=0;entryX=-0.023;entryY=0.189;entryPerimeter=0;" edge="1" parent="1" source="z-WeCfIhU2ebbsGFk7dm-63" target="z-WeCfIhU2ebbsGFk7dm-64">
            <mxGeometry width="100" height="100" relative="1" as="geometry">
              <Array as="points" />
            </mxGeometry>
          </mxCell>
        </UserObject>
        <mxCell id="z-WeCfIhU2ebbsGFk7dm-67" value=" " style="text;html=1;resizable=0;labelBackgroundColor=default;align=center;verticalAlign=middle;fontColor=default;fontSize=16;" vertex="1" parent="z-WeCfIhU2ebbsGFk7dm-66">
          <mxGeometry relative="1" as="geometry" />
        </mxCell>
        <mxCell id="z-WeCfIhU2ebbsGFk7dm-68" value="Request  Model Data Day" style="text;html=1;resizable=0;labelBackgroundColor=default;align=center;verticalAlign=middle;fontColor=#333333;fontSize=13.3;" vertex="1" parent="z-WeCfIhU2ebbsGFk7dm-66">
          <mxGeometry relative="1" as="geometry" />
        </mxCell>
        <mxCell id="z-WeCfIhU2ebbsGFk7dm-136" value="Text" style="edgeLabel;html=1;align=center;verticalAlign=middle;resizable=0;points=[];fontSize=3;fontFamily=Helvetica;fontColor=default;" vertex="1" connectable="0" parent="z-WeCfIhU2ebbsGFk7dm-66">
          <mxGeometry x="-0.7254" y="-2" relative="1" as="geometry">
            <mxPoint as="offset" />
          </mxGeometry>
        </mxCell>
        <UserObject label="" lucidchartObjectId="MvE6YNDkgJ-L" id="z-WeCfIhU2ebbsGFk7dm-69">
          <mxCell style="html=1;jettySize=18;whiteSpace=wrap;fontSize=13;strokeColor=#3a414a;strokeOpacity=100;strokeWidth=1.5;rounded=1;arcSize=12;edgeStyle=orthogonalEdgeStyle;startArrow=none;endArrow=block;endFill=1;exitX=1.023;exitY=0.2;exitPerimeter=0;entryX=-0.023;entryY=0.2;entryPerimeter=0;" edge="1" parent="1" source="z-WeCfIhU2ebbsGFk7dm-64" target="z-WeCfIhU2ebbsGFk7dm-65">
            <mxGeometry width="100" height="100" relative="1" as="geometry">
              <Array as="points" />
            </mxGeometry>
          </mxCell>
        </UserObject>
        <mxCell id="z-WeCfIhU2ebbsGFk7dm-70" value="Request  Model Data Day" style="text;html=1;resizable=0;labelBackgroundColor=default;align=center;verticalAlign=middle;fontColor=#333333;fontSize=13.3;" vertex="1" parent="z-WeCfIhU2ebbsGFk7dm-69">
          <mxGeometry relative="1" as="geometry" />
        </mxCell>
        <UserObject label="" lucidchartObjectId="SvE6IwTj96.O" id="z-WeCfIhU2ebbsGFk7dm-71">
          <mxCell style="html=1;jettySize=18;whiteSpace=wrap;fontSize=13;strokeColor=#3a414a;strokeOpacity=100;dashed=1;fixDash=1;dashPattern=8 8;strokeWidth=1.5;rounded=1;arcSize=12;edgeStyle=orthogonalEdgeStyle;startArrow=none;endArrow=block;endFill=1;exitX=-0.023;exitY=0.856;exitPerimeter=0;entryX=1.023;entryY=0.856;entryPerimeter=0;" edge="1" parent="1" source="z-WeCfIhU2ebbsGFk7dm-65" target="z-WeCfIhU2ebbsGFk7dm-64">
            <mxGeometry width="100" height="100" relative="1" as="geometry">
              <Array as="points" />
            </mxGeometry>
          </mxCell>
        </UserObject>
        <mxCell id="z-WeCfIhU2ebbsGFk7dm-72" value="Response  Model Data Day" style="text;html=1;resizable=0;labelBackgroundColor=default;align=center;verticalAlign=middle;fontColor=#333333;fontSize=13.3;" vertex="1" parent="z-WeCfIhU2ebbsGFk7dm-71">
          <mxGeometry relative="1" as="geometry" />
        </mxCell>
        <UserObject label="" lucidchartObjectId="XvE6IFdlk64x" id="z-WeCfIhU2ebbsGFk7dm-73">
          <mxCell style="html=1;jettySize=18;whiteSpace=wrap;fontSize=13;strokeColor=#3a414a;strokeOpacity=100;dashed=1;fixDash=1;dashPattern=8 8;strokeWidth=1.5;rounded=1;arcSize=12;edgeStyle=orthogonalEdgeStyle;startArrow=none;endArrow=block;endFill=1;exitX=-0.023;exitY=0.844;exitPerimeter=0;entryX=1.023;entryY=0.844;entryPerimeter=0;" edge="1" parent="1" source="z-WeCfIhU2ebbsGFk7dm-64" target="z-WeCfIhU2ebbsGFk7dm-63">
            <mxGeometry width="100" height="100" relative="1" as="geometry">
              <Array as="points" />
            </mxGeometry>
          </mxCell>
        </UserObject>
        <mxCell id="z-WeCfIhU2ebbsGFk7dm-74" value="Response  Model Data Day" style="text;html=1;resizable=0;labelBackgroundColor=default;align=center;verticalAlign=middle;fontColor=#333333;fontSize=13.3;" vertex="1" parent="z-WeCfIhU2ebbsGFk7dm-73">
          <mxGeometry relative="1" as="geometry" />
        </mxCell>
        <UserObject label="" lucidchartObjectId="DwE6evW2TTLC" id="z-WeCfIhU2ebbsGFk7dm-75">
          <mxCell style="html=1;jettySize=18;whiteSpace=wrap;fontSize=13;strokeColor=#3a414a;strokeOpacity=100;strokeWidth=1.5;rounded=1;arcSize=12;edgeStyle=orthogonalEdgeStyle;startArrow=none;endArrow=block;endFill=1;" edge="1" parent="1">
            <mxGeometry width="100" height="100" relative="1" as="geometry">
              <Array as="points" />
              <mxPoint x="248" y="844" as="sourcePoint" />
              <mxPoint x="531" y="844" as="targetPoint" />
            </mxGeometry>
          </mxCell>
        </UserObject>
        <mxCell id="z-WeCfIhU2ebbsGFk7dm-76" value="Select Model Data Day" style="text;html=1;resizable=0;labelBackgroundColor=default;align=center;verticalAlign=middle;fontColor=#333333;fontSize=13.3;" vertex="1" parent="z-WeCfIhU2ebbsGFk7dm-75">
          <mxGeometry relative="1" as="geometry" />
        </mxCell>
        <UserObject label="" lucidchartObjectId="DwE6HP8zQWMo" id="z-WeCfIhU2ebbsGFk7dm-77">
          <mxCell style="html=1;jettySize=18;whiteSpace=wrap;fontSize=13;strokeColor=#3a414a;strokeOpacity=100;dashed=1;fixDash=1;dashPattern=8 8;strokeWidth=1.5;rounded=1;arcSize=12;edgeStyle=orthogonalEdgeStyle;startArrow=none;endArrow=block;endFill=1;" edge="1" parent="1">
            <mxGeometry width="100" height="100" relative="1" as="geometry">
              <Array as="points" />
              <mxPoint x="531" y="903" as="sourcePoint" />
              <mxPoint x="248" y="903" as="targetPoint" />
            </mxGeometry>
          </mxCell>
        </UserObject>
        <mxCell id="z-WeCfIhU2ebbsGFk7dm-78" value="Display Model Data Day" style="text;html=1;resizable=0;labelBackgroundColor=default;align=center;verticalAlign=middle;fontColor=#333333;fontSize=13.3;" vertex="1" parent="z-WeCfIhU2ebbsGFk7dm-77">
          <mxGeometry relative="1" as="geometry" />
        </mxCell>
        <UserObject label="" lucidchartObjectId="JzE6TupmAoe-" id="z-WeCfIhU2ebbsGFk7dm-80">
          <mxCell style="html=1;jettySize=18;whiteSpace=wrap;fontSize=13;strokeColor=#3a414a;strokeOpacity=100;strokeWidth=1.5;rounded=1;arcSize=12;edgeStyle=orthogonalEdgeStyle;startArrow=none;endArrow=block;endFill=1;" edge="1" parent="1">
            <mxGeometry width="100" height="100" relative="1" as="geometry">
              <Array as="points" />
              <mxPoint x="251.01" y="1359" as="sourcePoint" />
              <mxPoint x="534.01" y="1359" as="targetPoint" />
            </mxGeometry>
          </mxCell>
        </UserObject>
        <mxCell id="z-WeCfIhU2ebbsGFk7dm-81" value="Select Raw Data Month" style="text;html=1;resizable=0;labelBackgroundColor=default;align=center;verticalAlign=middle;fontColor=#333333;fontSize=13.3;" vertex="1" parent="z-WeCfIhU2ebbsGFk7dm-80">
          <mxGeometry relative="1" as="geometry">
            <mxPoint x="1" as="offset" />
          </mxGeometry>
        </mxCell>
        <UserObject label="" lucidchartObjectId="JzE6P89quAIp" id="z-WeCfIhU2ebbsGFk7dm-82">
          <mxCell style="html=1;jettySize=18;whiteSpace=wrap;fontSize=13;strokeColor=#3a414a;strokeOpacity=100;dashed=1;fixDash=1;dashPattern=8 8;strokeWidth=1.5;rounded=1;arcSize=12;edgeStyle=orthogonalEdgeStyle;startArrow=none;endArrow=block;endFill=1;" edge="1" parent="1">
            <mxGeometry width="100" height="100" relative="1" as="geometry">
              <Array as="points" />
              <mxPoint x="534.01" y="1418" as="sourcePoint" />
              <mxPoint x="251.01" y="1418" as="targetPoint" />
            </mxGeometry>
          </mxCell>
        </UserObject>
        <mxCell id="z-WeCfIhU2ebbsGFk7dm-83" value="Display Raw Data Month" style="text;html=1;resizable=0;labelBackgroundColor=default;align=center;verticalAlign=middle;fontColor=#333333;fontSize=13.3;" vertex="1" parent="z-WeCfIhU2ebbsGFk7dm-82">
          <mxGeometry relative="1" as="geometry">
            <mxPoint x="1" as="offset" />
          </mxGeometry>
        </mxCell>
        <UserObject label="" lucidchartObjectId="6zE65sCzZ~cI" id="z-WeCfIhU2ebbsGFk7dm-85">
          <mxCell style="html=1;jettySize=18;whiteSpace=wrap;fontSize=13;strokeColor=#3a414a;strokeOpacity=100;strokeWidth=1.5;rounded=1;arcSize=12;edgeStyle=orthogonalEdgeStyle;startArrow=none;endArrow=block;endFill=1;entryX=-0.023;entryY=0.189;entryPerimeter=0;" edge="1" parent="1">
            <mxGeometry width="100" height="100" relative="1" as="geometry">
              <Array as="points" />
              <mxPoint x="548.01" y="1356" as="sourcePoint" />
              <mxPoint x="830.6189999999999" y="1356.0099999999998" as="targetPoint" />
            </mxGeometry>
          </mxCell>
        </UserObject>
        <mxCell id="z-WeCfIhU2ebbsGFk7dm-86" value=" " style="text;html=1;resizable=0;labelBackgroundColor=default;align=center;verticalAlign=middle;fontColor=default;fontSize=16;" vertex="1" parent="z-WeCfIhU2ebbsGFk7dm-85">
          <mxGeometry relative="1" as="geometry" />
        </mxCell>
        <mxCell id="z-WeCfIhU2ebbsGFk7dm-87" value="Request  Raw Data Month" style="text;html=1;resizable=0;labelBackgroundColor=default;align=center;verticalAlign=middle;fontColor=#333333;fontSize=13.3;" vertex="1" parent="z-WeCfIhU2ebbsGFk7dm-85">
          <mxGeometry relative="1" as="geometry" />
        </mxCell>
        <UserObject label="" lucidchartObjectId="6zE6VOaw0r12" id="z-WeCfIhU2ebbsGFk7dm-88">
          <mxCell style="html=1;jettySize=18;whiteSpace=wrap;fontSize=13;strokeColor=#3a414a;strokeOpacity=100;dashed=1;fixDash=1;dashPattern=8 8;strokeWidth=1.5;rounded=1;arcSize=12;edgeStyle=orthogonalEdgeStyle;startArrow=none;endArrow=block;endFill=1;exitX=-0.023;exitY=0.844;exitPerimeter=0;" edge="1" parent="1">
            <mxGeometry width="100" height="100" relative="1" as="geometry">
              <Array as="points" />
              <mxPoint x="548.01" y="1415" as="targetPoint" />
              <mxPoint x="830.6189999999999" y="1414.96" as="sourcePoint" />
            </mxGeometry>
          </mxCell>
        </UserObject>
        <mxCell id="z-WeCfIhU2ebbsGFk7dm-89" value="Response  Raw Data Month" style="text;html=1;resizable=0;labelBackgroundColor=default;align=center;verticalAlign=middle;fontColor=#333333;fontSize=13.3;" vertex="1" parent="z-WeCfIhU2ebbsGFk7dm-88">
          <mxGeometry relative="1" as="geometry" />
        </mxCell>
        <UserObject label="" lucidchartObjectId="iAE6JvFgQ1F." id="z-WeCfIhU2ebbsGFk7dm-90">
          <mxCell style="html=1;jettySize=18;whiteSpace=wrap;fontSize=13;strokeColor=#3a414a;strokeOpacity=100;strokeWidth=1.5;rounded=1;arcSize=12;edgeStyle=orthogonalEdgeStyle;startArrow=none;endArrow=block;endFill=1;" edge="1" parent="1">
            <mxGeometry width="100" height="100" relative="1" as="geometry">
              <Array as="points" />
              <mxPoint x="849.01" y="1357" as="sourcePoint" />
              <mxPoint x="1131.01" y="1357" as="targetPoint" />
            </mxGeometry>
          </mxCell>
        </UserObject>
        <mxCell id="z-WeCfIhU2ebbsGFk7dm-91" value="Request  Raw Data Month" style="text;html=1;resizable=0;labelBackgroundColor=default;align=center;verticalAlign=middle;fontColor=#333333;fontSize=13.3;" vertex="1" parent="z-WeCfIhU2ebbsGFk7dm-90">
          <mxGeometry relative="1" as="geometry" />
        </mxCell>
        <UserObject label="" lucidchartObjectId="iAE676oLfsYu" id="z-WeCfIhU2ebbsGFk7dm-92">
          <mxCell style="html=1;jettySize=18;whiteSpace=wrap;fontSize=13;strokeColor=#3a414a;strokeOpacity=100;dashed=1;fixDash=1;dashPattern=8 8;strokeWidth=1.5;rounded=1;arcSize=12;edgeStyle=orthogonalEdgeStyle;startArrow=none;endArrow=block;endFill=1;" edge="1" parent="1">
            <mxGeometry width="100" height="100" relative="1" as="geometry">
              <Array as="points" />
              <mxPoint x="1131.01" y="1416" as="sourcePoint" />
              <mxPoint x="849.01" y="1416" as="targetPoint" />
            </mxGeometry>
          </mxCell>
        </UserObject>
        <mxCell id="z-WeCfIhU2ebbsGFk7dm-93" value="Response  Raw Data Month" style="text;html=1;resizable=0;labelBackgroundColor=default;align=center;verticalAlign=middle;fontColor=#333333;fontSize=13.3;" vertex="1" parent="z-WeCfIhU2ebbsGFk7dm-92">
          <mxGeometry relative="1" as="geometry" />
        </mxCell>
        <UserObject label="" lucidchartObjectId="6zE6u8z6sxOD" id="z-WeCfIhU2ebbsGFk7dm-106">
          <mxCell style="html=1;overflow=block;blockSpacing=1;whiteSpace=wrap;fontSize=16.7;fontColor=#3a414a;spacing=9;strokeColor=#3a414a;strokeOpacity=100;rounded=1;absoluteArcSize=1;arcSize=9;strokeWidth=0.8;" vertex="1" parent="1">
            <mxGeometry x="1131.51" y="1340" width="17" height="90" as="geometry" />
          </mxCell>
        </UserObject>
        <mxCell id="z-WeCfIhU2ebbsGFk7dm-107" value="" style="endArrow=none;dashed=1;html=1;rounded=0;fontFamily=Helvetica;fontSize=13;fontColor=default;strokeWidth=2;entryX=0.5;entryY=1;entryDx=0;entryDy=0;startArrow=none;" edge="1" parent="1" source="z-WeCfIhU2ebbsGFk7dm-121">
          <mxGeometry width="50" height="50" relative="1" as="geometry">
            <mxPoint x="1141.01" y="2471.0000000000005" as="sourcePoint" />
            <mxPoint x="1140.01" y="1429" as="targetPoint" />
          </mxGeometry>
        </mxCell>
        <UserObject label="" lucidchartObjectId="6zE65sCzZ~cI" id="z-WeCfIhU2ebbsGFk7dm-112">
          <mxCell style="html=1;jettySize=18;whiteSpace=wrap;fontSize=13;strokeColor=#3a414a;strokeOpacity=100;strokeWidth=1.5;rounded=1;arcSize=12;edgeStyle=orthogonalEdgeStyle;startArrow=none;endArrow=block;endFill=1;entryX=-0.023;entryY=0.189;entryPerimeter=0;" edge="1" parent="1" target="z-WeCfIhU2ebbsGFk7dm-111">
            <mxGeometry width="100" height="100" relative="1" as="geometry">
              <Array as="points" />
              <mxPoint x="548.01" y="1478" as="sourcePoint" />
            </mxGeometry>
          </mxCell>
        </UserObject>
        <mxCell id="z-WeCfIhU2ebbsGFk7dm-113" value=" " style="text;html=1;resizable=0;labelBackgroundColor=default;align=center;verticalAlign=middle;fontColor=default;fontSize=16;" vertex="1" parent="z-WeCfIhU2ebbsGFk7dm-112">
          <mxGeometry relative="1" as="geometry" />
        </mxCell>
        <mxCell id="z-WeCfIhU2ebbsGFk7dm-114" value="Request  Raw Data Day" style="text;html=1;resizable=0;labelBackgroundColor=default;align=center;verticalAlign=middle;fontColor=#333333;fontSize=13.3;" vertex="1" parent="z-WeCfIhU2ebbsGFk7dm-112">
          <mxGeometry relative="1" as="geometry" />
        </mxCell>
        <UserObject label="" lucidchartObjectId="6zE6VOaw0r12" id="z-WeCfIhU2ebbsGFk7dm-115">
          <mxCell style="html=1;jettySize=18;whiteSpace=wrap;fontSize=13;strokeColor=#3a414a;strokeOpacity=100;dashed=1;fixDash=1;dashPattern=8 8;strokeWidth=1.5;rounded=1;arcSize=12;edgeStyle=orthogonalEdgeStyle;startArrow=none;endArrow=block;endFill=1;exitX=-0.023;exitY=0.844;exitPerimeter=0;" edge="1" parent="1" source="z-WeCfIhU2ebbsGFk7dm-111">
            <mxGeometry width="100" height="100" relative="1" as="geometry">
              <Array as="points" />
              <mxPoint x="548.01" y="1537" as="targetPoint" />
            </mxGeometry>
          </mxCell>
        </UserObject>
        <mxCell id="z-WeCfIhU2ebbsGFk7dm-116" value="Response  Raw Data Day" style="text;html=1;resizable=0;labelBackgroundColor=default;align=center;verticalAlign=middle;fontColor=#333333;fontSize=13.3;" vertex="1" parent="z-WeCfIhU2ebbsGFk7dm-115">
          <mxGeometry relative="1" as="geometry" />
        </mxCell>
        <UserObject label="" lucidchartObjectId="iAE6JvFgQ1F." id="z-WeCfIhU2ebbsGFk7dm-117">
          <mxCell style="html=1;jettySize=18;whiteSpace=wrap;fontSize=13;strokeColor=#3a414a;strokeOpacity=100;strokeWidth=1.5;rounded=1;arcSize=12;edgeStyle=orthogonalEdgeStyle;startArrow=none;endArrow=block;endFill=1;" edge="1" parent="1">
            <mxGeometry width="100" height="100" relative="1" as="geometry">
              <Array as="points" />
              <mxPoint x="849.01" y="1479" as="sourcePoint" />
              <mxPoint x="1131.01" y="1479" as="targetPoint" />
            </mxGeometry>
          </mxCell>
        </UserObject>
        <mxCell id="z-WeCfIhU2ebbsGFk7dm-118" value="Request  Raw Data Day" style="text;html=1;resizable=0;labelBackgroundColor=default;align=center;verticalAlign=middle;fontColor=#333333;fontSize=13.3;" vertex="1" parent="z-WeCfIhU2ebbsGFk7dm-117">
          <mxGeometry relative="1" as="geometry" />
        </mxCell>
        <UserObject label="" lucidchartObjectId="iAE676oLfsYu" id="z-WeCfIhU2ebbsGFk7dm-119">
          <mxCell style="html=1;jettySize=18;whiteSpace=wrap;fontSize=13;strokeColor=#3a414a;strokeOpacity=100;dashed=1;fixDash=1;dashPattern=8 8;strokeWidth=1.5;rounded=1;arcSize=12;edgeStyle=orthogonalEdgeStyle;startArrow=none;endArrow=block;endFill=1;" edge="1" parent="1">
            <mxGeometry width="100" height="100" relative="1" as="geometry">
              <Array as="points" />
              <mxPoint x="1131.01" y="1538" as="sourcePoint" />
              <mxPoint x="849.01" y="1538" as="targetPoint" />
            </mxGeometry>
          </mxCell>
        </UserObject>
        <mxCell id="z-WeCfIhU2ebbsGFk7dm-120" value="Response  Raw Data Day" style="text;html=1;resizable=0;labelBackgroundColor=default;align=center;verticalAlign=middle;fontColor=#333333;fontSize=13.3;" vertex="1" parent="z-WeCfIhU2ebbsGFk7dm-119">
          <mxGeometry relative="1" as="geometry" />
        </mxCell>
        <UserObject label="" lucidchartObjectId="JzE6Sc_RQSB~" id="z-WeCfIhU2ebbsGFk7dm-108">
          <mxCell style="html=1;overflow=block;blockSpacing=1;whiteSpace=wrap;fontSize=16.7;fontColor=#3a414a;spacing=9;strokeColor=#3a414a;strokeOpacity=100;rounded=1;absoluteArcSize=1;arcSize=9;strokeWidth=0.8;" vertex="1" parent="1">
            <mxGeometry x="532.01" y="1461" width="17" height="90" as="geometry" />
          </mxCell>
        </UserObject>
        <mxCell id="z-WeCfIhU2ebbsGFk7dm-122" value="" style="endArrow=none;dashed=1;html=1;rounded=0;fontFamily=Helvetica;fontSize=13;fontColor=default;strokeWidth=2;entryX=0.5;entryY=1;entryDx=0;entryDy=0;" edge="1" parent="1" target="z-WeCfIhU2ebbsGFk7dm-108">
          <mxGeometry width="50" height="50" relative="1" as="geometry">
            <mxPoint x="540" y="2080.0000000000005" as="sourcePoint" />
            <mxPoint x="539.0000000000002" y="146" as="targetPoint" />
          </mxGeometry>
        </mxCell>
        <UserObject label="" lucidchartObjectId="6zE6u8z6sxOD" id="z-WeCfIhU2ebbsGFk7dm-111">
          <mxCell style="html=1;overflow=block;blockSpacing=1;whiteSpace=wrap;fontSize=16.7;fontColor=#3a414a;spacing=9;strokeColor=#3a414a;strokeOpacity=100;rounded=1;absoluteArcSize=1;arcSize=9;strokeWidth=0.8;" vertex="1" parent="1">
            <mxGeometry x="831.01" y="1461" width="17" height="90" as="geometry" />
          </mxCell>
        </UserObject>
        <mxCell id="z-WeCfIhU2ebbsGFk7dm-123" value="" style="endArrow=none;dashed=1;html=1;rounded=0;fontFamily=Helvetica;fontSize=13;fontColor=default;strokeWidth=2;entryX=0.5;entryY=1;entryDx=0;entryDy=0;" edge="1" parent="1" target="z-WeCfIhU2ebbsGFk7dm-111">
          <mxGeometry width="50" height="50" relative="1" as="geometry">
            <mxPoint x="838.9999999999998" y="2080.0000000000005" as="sourcePoint" />
            <mxPoint x="838" y="146" as="targetPoint" />
          </mxGeometry>
        </mxCell>
        <UserObject label="" lucidchartObjectId="6zE6u8z6sxOD" id="z-WeCfIhU2ebbsGFk7dm-121">
          <mxCell style="html=1;overflow=block;blockSpacing=1;whiteSpace=wrap;fontSize=16.7;fontColor=#3a414a;spacing=9;strokeColor=#3a414a;strokeOpacity=100;rounded=1;absoluteArcSize=1;arcSize=9;strokeWidth=0.8;" vertex="1" parent="1">
            <mxGeometry x="1132.01" y="1461" width="17" height="90" as="geometry" />
          </mxCell>
        </UserObject>
        <mxCell id="z-WeCfIhU2ebbsGFk7dm-124" value="" style="endArrow=none;dashed=1;html=1;rounded=0;fontFamily=Helvetica;fontSize=13;fontColor=default;strokeWidth=2;entryX=0.5;entryY=1;entryDx=0;entryDy=0;" edge="1" parent="1" target="z-WeCfIhU2ebbsGFk7dm-121">
          <mxGeometry width="50" height="50" relative="1" as="geometry">
            <mxPoint x="1139" y="2080.0000000000005" as="sourcePoint" />
            <mxPoint x="1138" y="1038" as="targetPoint" />
          </mxGeometry>
        </mxCell>
        <UserObject label="" lucidchartObjectId="JzE6TupmAoe-" id="z-WeCfIhU2ebbsGFk7dm-127">
          <mxCell style="html=1;jettySize=18;whiteSpace=wrap;fontSize=13;strokeColor=#3a414a;strokeOpacity=100;strokeWidth=1.5;rounded=1;arcSize=12;edgeStyle=orthogonalEdgeStyle;startArrow=none;endArrow=block;endFill=1;" edge="1" parent="1">
            <mxGeometry width="100" height="100" relative="1" as="geometry">
              <Array as="points" />
              <mxPoint x="250.01" y="1480.2000000000003" as="sourcePoint" />
              <mxPoint x="533.01" y="1480.2000000000003" as="targetPoint" />
            </mxGeometry>
          </mxCell>
        </UserObject>
        <mxCell id="z-WeCfIhU2ebbsGFk7dm-128" value="Select Raw Data Day" style="text;html=1;resizable=0;labelBackgroundColor=default;align=center;verticalAlign=middle;fontColor=#333333;fontSize=13.3;" vertex="1" parent="z-WeCfIhU2ebbsGFk7dm-127">
          <mxGeometry relative="1" as="geometry">
            <mxPoint x="1" as="offset" />
          </mxGeometry>
        </mxCell>
        <UserObject label="" lucidchartObjectId="JzE6P89quAIp" id="z-WeCfIhU2ebbsGFk7dm-129">
          <mxCell style="html=1;jettySize=18;whiteSpace=wrap;fontSize=13;strokeColor=#3a414a;strokeOpacity=100;dashed=1;fixDash=1;dashPattern=8 8;strokeWidth=1.5;rounded=1;arcSize=12;edgeStyle=orthogonalEdgeStyle;startArrow=none;endArrow=block;endFill=1;" edge="1" parent="1">
            <mxGeometry width="100" height="100" relative="1" as="geometry">
              <Array as="points" />
              <mxPoint x="533.01" y="1539.2" as="sourcePoint" />
              <mxPoint x="250.01" y="1539.2" as="targetPoint" />
            </mxGeometry>
          </mxCell>
        </UserObject>
        <mxCell id="z-WeCfIhU2ebbsGFk7dm-130" value="Display Raw Data Day" style="text;html=1;resizable=0;labelBackgroundColor=default;align=center;verticalAlign=middle;fontColor=#333333;fontSize=13.3;" vertex="1" parent="z-WeCfIhU2ebbsGFk7dm-129">
          <mxGeometry relative="1" as="geometry">
            <mxPoint x="1" as="offset" />
          </mxGeometry>
        </mxCell>
        <mxCell id="z-WeCfIhU2ebbsGFk7dm-140" value="&#xa;&#xa;&lt;span style=&quot;color: rgb(51, 51, 51); font-family: helvetica; font-size: 13px; font-style: normal; font-weight: 400; letter-spacing: normal; text-align: center; text-indent: 0px; text-transform: none; word-spacing: 0px; background-color: rgb(255, 255, 255); display: inline; float: none;&quot;&gt;Display Node Config&amp;nbsp;&lt;/span&gt;&#xa;&#xa;" style="edgeStyle=orthogonalEdgeStyle;rounded=1;orthogonalLoop=1;jettySize=auto;html=1;exitX=-0.059;exitY=0.878;exitDx=0;exitDy=0;entryX=1.08;entryY=0.417;entryDx=0;entryDy=0;labelBorderColor=none;fontFamily=Helvetica;fontSize=1;fontColor=default;targetPerimeterSpacing=0;strokeWidth=1.5;exitPerimeter=0;entryPerimeter=0;dashed=1;" edge="1" parent="1" source="z-WeCfIhU2ebbsGFk7dm-131" target="z-WeCfIhU2ebbsGFk7dm-37">
          <mxGeometry relative="1" as="geometry" />
        </mxCell>
        <mxCell id="z-WeCfIhU2ebbsGFk7dm-141" value="Text" style="edgeLabel;html=1;align=center;verticalAlign=middle;resizable=0;points=[];fontSize=1;fontFamily=Helvetica;fontColor=default;" vertex="1" connectable="0" parent="z-WeCfIhU2ebbsGFk7dm-140">
          <mxGeometry x="0.1198" y="-2" relative="1" as="geometry">
            <mxPoint as="offset" />
          </mxGeometry>
        </mxCell>
        <mxCell id="z-WeCfIhU2ebbsGFk7dm-142" value="Text" style="edgeLabel;html=1;align=center;verticalAlign=middle;resizable=0;points=[];fontSize=1;fontFamily=Helvetica;fontColor=default;" vertex="1" connectable="0" parent="z-WeCfIhU2ebbsGFk7dm-140">
          <mxGeometry x="0.1514" y="-2" relative="1" as="geometry">
            <mxPoint as="offset" />
          </mxGeometry>
        </mxCell>
        <mxCell id="z-WeCfIhU2ebbsGFk7dm-143" value="Text" style="edgeLabel;html=1;align=center;verticalAlign=middle;resizable=0;points=[];fontSize=1;fontFamily=Helvetica;fontColor=default;" vertex="1" connectable="0" parent="z-WeCfIhU2ebbsGFk7dm-140">
          <mxGeometry x="0.0955" y="-2" relative="1" as="geometry">
            <mxPoint as="offset" />
          </mxGeometry>
        </mxCell>
        <UserObject label="" lucidchartObjectId="5uE6oH6iUdjr" id="z-WeCfIhU2ebbsGFk7dm-131">
          <mxCell style="html=1;overflow=block;blockSpacing=1;whiteSpace=wrap;fontSize=16.7;fontColor=#3a414a;spacing=9;strokeColor=#3a414a;strokeOpacity=100;rounded=1;absoluteArcSize=1;arcSize=9;strokeWidth=0.8;" vertex="1" parent="1">
            <mxGeometry x="531" y="950" width="17" height="90" as="geometry" />
          </mxCell>
        </UserObject>
        <mxCell id="z-WeCfIhU2ebbsGFk7dm-132" value="" style="endArrow=none;dashed=1;html=1;rounded=0;fontFamily=Helvetica;fontSize=13;fontColor=default;strokeWidth=2;entryX=0.5;entryY=1;entryDx=0;entryDy=0;startArrow=none;" edge="1" parent="1" source="z-WeCfIhU2ebbsGFk7dm-156" target="z-WeCfIhU2ebbsGFk7dm-131">
          <mxGeometry width="50" height="50" relative="1" as="geometry">
            <mxPoint x="538.5184275184274" y="1322" as="sourcePoint" />
            <mxPoint x="539" y="146" as="targetPoint" />
          </mxGeometry>
        </mxCell>
        <UserObject label="" lucidchartObjectId="DwE6evW2TTLC" id="z-WeCfIhU2ebbsGFk7dm-133">
          <mxCell style="html=1;jettySize=18;whiteSpace=wrap;fontSize=13;strokeColor=#3a414a;strokeOpacity=100;strokeWidth=1.5;rounded=1;arcSize=12;edgeStyle=orthogonalEdgeStyle;startArrow=none;endArrow=block;endFill=1;entryX=0.028;entryY=0.161;entryDx=0;entryDy=0;entryPerimeter=0;exitX=1.111;exitY=0.359;exitDx=0;exitDy=0;exitPerimeter=0;" edge="1" parent="1" source="z-WeCfIhU2ebbsGFk7dm-37" target="z-WeCfIhU2ebbsGFk7dm-131">
            <mxGeometry width="100" height="100" relative="1" as="geometry">
              <Array as="points" />
              <mxPoint x="248" y="970" as="sourcePoint" />
              <mxPoint x="531" y="970" as="targetPoint" />
            </mxGeometry>
          </mxCell>
        </UserObject>
        <mxCell id="z-WeCfIhU2ebbsGFk7dm-134" value="Display Node Config&amp;nbsp;" style="text;html=1;resizable=0;labelBackgroundColor=default;align=center;verticalAlign=middle;fontColor=#333333;fontSize=13.3;" vertex="1" parent="z-WeCfIhU2ebbsGFk7dm-133">
          <mxGeometry relative="1" as="geometry">
            <mxPoint y="-4" as="offset" />
          </mxGeometry>
        </mxCell>
        <mxCell id="z-WeCfIhU2ebbsGFk7dm-138" style="edgeStyle=orthogonalEdgeStyle;rounded=1;orthogonalLoop=1;jettySize=auto;html=1;exitX=0.99;exitY=0.167;exitDx=0;exitDy=0;labelBorderColor=none;fontFamily=Helvetica;fontSize=1;fontColor=default;targetPerimeterSpacing=0;strokeWidth=1.5;exitPerimeter=0;" edge="1" parent="1" source="z-WeCfIhU2ebbsGFk7dm-131" target="z-WeCfIhU2ebbsGFk7dm-131">
          <mxGeometry relative="1" as="geometry">
            <Array as="points">
              <mxPoint x="580" y="965" />
              <mxPoint x="580" y="1030" />
            </Array>
          </mxGeometry>
        </mxCell>
        <mxCell id="z-WeCfIhU2ebbsGFk7dm-146" value="Config Node" style="text;html=1;resizable=0;labelBackgroundColor=default;align=center;verticalAlign=middle;fontColor=#333333;fontSize=13.3;" vertex="1" parent="1">
          <mxGeometry x="609.999529389808" y="995.0005595330383" as="geometry" />
        </mxCell>
        <mxCell id="z-WeCfIhU2ebbsGFk7dm-147" value="&#xa;&#xa;&lt;span style=&quot;color: rgb(51, 51, 51); font-family: helvetica; font-size: 13px; font-style: normal; font-weight: 400; letter-spacing: normal; text-align: center; text-indent: 0px; text-transform: none; word-spacing: 0px; background-color: rgb(255, 255, 255); display: inline; float: none;&quot;&gt;Display Node Config&amp;nbsp;&lt;/span&gt;&#xa;&#xa;" style="edgeStyle=orthogonalEdgeStyle;rounded=1;orthogonalLoop=1;jettySize=auto;html=1;exitX=-0.059;exitY=0.878;exitDx=0;exitDy=0;entryX=0.955;entryY=0.771;entryDx=0;entryDy=0;labelBorderColor=none;fontFamily=Helvetica;fontSize=1;fontColor=default;targetPerimeterSpacing=0;strokeWidth=1.5;exitPerimeter=0;entryPerimeter=0;" edge="1" parent="1" source="z-WeCfIhU2ebbsGFk7dm-151">
          <mxGeometry relative="1" as="geometry">
            <mxPoint x="248.00499999999988" y="1666.852" as="targetPoint" />
          </mxGeometry>
        </mxCell>
        <mxCell id="z-WeCfIhU2ebbsGFk7dm-148" value="Text" style="edgeLabel;html=1;align=center;verticalAlign=middle;resizable=0;points=[];fontSize=1;fontFamily=Helvetica;fontColor=default;" vertex="1" connectable="0" parent="z-WeCfIhU2ebbsGFk7dm-147">
          <mxGeometry x="0.1198" y="-2" relative="1" as="geometry">
            <mxPoint as="offset" />
          </mxGeometry>
        </mxCell>
        <mxCell id="z-WeCfIhU2ebbsGFk7dm-149" value="Text" style="edgeLabel;html=1;align=center;verticalAlign=middle;resizable=0;points=[];fontSize=1;fontFamily=Helvetica;fontColor=default;" vertex="1" connectable="0" parent="z-WeCfIhU2ebbsGFk7dm-147">
          <mxGeometry x="0.1514" y="-2" relative="1" as="geometry">
            <mxPoint as="offset" />
          </mxGeometry>
        </mxCell>
        <mxCell id="z-WeCfIhU2ebbsGFk7dm-150" value="Text" style="edgeLabel;html=1;align=center;verticalAlign=middle;resizable=0;points=[];fontSize=1;fontFamily=Helvetica;fontColor=default;" vertex="1" connectable="0" parent="z-WeCfIhU2ebbsGFk7dm-147">
          <mxGeometry x="0.0955" y="-2" relative="1" as="geometry">
            <mxPoint as="offset" />
          </mxGeometry>
        </mxCell>
        <UserObject label="" lucidchartObjectId="5uE6oH6iUdjr" id="z-WeCfIhU2ebbsGFk7dm-151">
          <mxCell style="html=1;overflow=block;blockSpacing=1;whiteSpace=wrap;fontSize=16.7;fontColor=#3a414a;spacing=9;strokeColor=#3a414a;strokeOpacity=100;rounded=1;absoluteArcSize=1;arcSize=9;strokeWidth=0.8;" vertex="1" parent="1">
            <mxGeometry x="531.77" y="1587" width="17" height="90" as="geometry" />
          </mxCell>
        </UserObject>
        <UserObject label="" lucidchartObjectId="DwE6evW2TTLC" id="z-WeCfIhU2ebbsGFk7dm-152">
          <mxCell style="html=1;jettySize=18;whiteSpace=wrap;fontSize=13;strokeColor=#3a414a;strokeOpacity=100;strokeWidth=1.5;rounded=1;arcSize=12;edgeStyle=orthogonalEdgeStyle;startArrow=none;endArrow=block;endFill=1;entryX=0.028;entryY=0.161;entryDx=0;entryDy=0;entryPerimeter=0;exitX=1.088;exitY=0.661;exitDx=0;exitDy=0;exitPerimeter=0;" edge="1" parent="1" target="z-WeCfIhU2ebbsGFk7dm-151">
            <mxGeometry width="100" height="100" relative="1" as="geometry">
              <Array as="points" />
              <mxPoint x="250.26599999999985" y="1599.5320000000002" as="sourcePoint" />
              <mxPoint x="531.77" y="1607" as="targetPoint" />
            </mxGeometry>
          </mxCell>
        </UserObject>
        <mxCell id="z-WeCfIhU2ebbsGFk7dm-153" value="Display Node Config&amp;nbsp;" style="text;html=1;resizable=0;labelBackgroundColor=default;align=center;verticalAlign=middle;fontColor=#333333;fontSize=13.3;" vertex="1" parent="z-WeCfIhU2ebbsGFk7dm-152">
          <mxGeometry relative="1" as="geometry">
            <mxPoint y="-4" as="offset" />
          </mxGeometry>
        </mxCell>
        <mxCell id="z-WeCfIhU2ebbsGFk7dm-154" style="edgeStyle=orthogonalEdgeStyle;rounded=1;orthogonalLoop=1;jettySize=auto;html=1;exitX=0.99;exitY=0.167;exitDx=0;exitDy=0;entryX=1.015;entryY=0.878;entryDx=0;entryDy=0;entryPerimeter=0;labelBorderColor=none;fontFamily=Helvetica;fontSize=1;fontColor=default;targetPerimeterSpacing=0;strokeWidth=1.5;exitPerimeter=0;" edge="1" parent="1" source="z-WeCfIhU2ebbsGFk7dm-151" target="z-WeCfIhU2ebbsGFk7dm-151">
          <mxGeometry relative="1" as="geometry">
            <Array as="points">
              <mxPoint x="580.77" y="1602" />
              <mxPoint x="580.77" y="1667" />
              <mxPoint x="548.77" y="1667" />
            </Array>
          </mxGeometry>
        </mxCell>
        <mxCell id="z-WeCfIhU2ebbsGFk7dm-155" value="Config Node" style="text;html=1;resizable=0;labelBackgroundColor=default;align=center;verticalAlign=middle;fontColor=#333333;fontSize=13.3;" vertex="1" parent="1">
          <mxGeometry x="610.769529389808" y="1632.0005595330383" as="geometry" />
        </mxCell>
        <UserObject label="" lucidchartObjectId="5uE6oH6iUdjr" id="z-WeCfIhU2ebbsGFk7dm-156">
          <mxCell style="html=1;overflow=block;blockSpacing=1;whiteSpace=wrap;fontSize=16.7;fontColor=#3a414a;spacing=9;strokeColor=#3a414a;strokeOpacity=100;rounded=1;absoluteArcSize=1;arcSize=9;strokeWidth=0.8;" vertex="1" parent="1">
            <mxGeometry x="530" y="1079" width="17" height="221" as="geometry" />
          </mxCell>
        </UserObject>
        <mxCell id="z-WeCfIhU2ebbsGFk7dm-157" value="" style="endArrow=none;dashed=1;html=1;rounded=0;fontFamily=Helvetica;fontSize=13;fontColor=default;strokeWidth=2;entryX=0.5;entryY=1;entryDx=0;entryDy=0;startArrow=none;" edge="1" parent="1" source="z-WeCfIhU2ebbsGFk7dm-79" target="z-WeCfIhU2ebbsGFk7dm-156">
          <mxGeometry width="50" height="50" relative="1" as="geometry">
            <mxPoint x="538.6376146788989" y="1322" as="sourcePoint" />
            <mxPoint x="539.5" y="1040" as="targetPoint" />
          </mxGeometry>
        </mxCell>
        <UserObject label="" lucidchartObjectId="DwE6evW2TTLC" id="z-WeCfIhU2ebbsGFk7dm-170">
          <mxCell style="html=1;jettySize=18;whiteSpace=wrap;fontSize=13;strokeColor=#3a414a;strokeOpacity=100;strokeWidth=1.5;rounded=1;arcSize=12;edgeStyle=orthogonalEdgeStyle;startArrow=none;endArrow=block;endFill=1;" edge="1" parent="1">
            <mxGeometry width="100" height="100" relative="1" as="geometry">
              <Array as="points" />
              <mxPoint x="246.99999999999997" y="1100" as="sourcePoint" />
              <mxPoint x="530" y="1100" as="targetPoint" />
            </mxGeometry>
          </mxCell>
        </UserObject>
        <mxCell id="z-WeCfIhU2ebbsGFk7dm-171" value="Edit parameter" style="text;html=1;resizable=0;labelBackgroundColor=default;align=center;verticalAlign=middle;fontColor=#333333;fontSize=13.3;" vertex="1" parent="z-WeCfIhU2ebbsGFk7dm-170">
          <mxGeometry relative="1" as="geometry" />
        </mxCell>
        <UserObject label="" lucidchartObjectId="5uE6oH6iUdjr" id="z-WeCfIhU2ebbsGFk7dm-172">
          <mxCell style="html=1;overflow=block;blockSpacing=1;whiteSpace=wrap;fontSize=16.7;fontColor=#3a414a;spacing=9;strokeColor=#3a414a;strokeOpacity=100;rounded=1;absoluteArcSize=1;arcSize=9;strokeWidth=0.8;" vertex="1" parent="1">
            <mxGeometry x="829" y="1079" width="17" height="91" as="geometry" />
          </mxCell>
        </UserObject>
        <mxCell id="z-WeCfIhU2ebbsGFk7dm-173" value="" style="endArrow=none;dashed=1;html=1;rounded=0;fontFamily=Helvetica;fontSize=13;fontColor=default;strokeWidth=2;entryX=0.5;entryY=1;entryDx=0;entryDy=0;startArrow=none;" edge="1" parent="1" source="z-WeCfIhU2ebbsGFk7dm-190" target="z-WeCfIhU2ebbsGFk7dm-172">
          <mxGeometry width="50" height="50" relative="1" as="geometry">
            <mxPoint x="837.5184275184276" y="1322" as="sourcePoint" />
            <mxPoint x="838.0000000000002" y="146" as="targetPoint" />
          </mxGeometry>
        </mxCell>
        <UserObject label="" lucidchartObjectId="JzE6Sc_RQSB~" id="z-WeCfIhU2ebbsGFk7dm-79">
          <mxCell style="html=1;overflow=block;blockSpacing=1;whiteSpace=wrap;fontSize=16.7;fontColor=#3a414a;spacing=9;strokeColor=#3a414a;strokeOpacity=100;rounded=1;absoluteArcSize=1;arcSize=9;strokeWidth=0.8;" vertex="1" parent="1">
            <mxGeometry x="531.51" y="1340" width="17" height="90" as="geometry" />
          </mxCell>
        </UserObject>
        <mxCell id="z-WeCfIhU2ebbsGFk7dm-174" value="" style="endArrow=none;dashed=1;html=1;rounded=0;fontFamily=Helvetica;fontSize=13;fontColor=default;strokeWidth=2;entryX=0.5;entryY=1;entryDx=0;entryDy=0;startArrow=none;" edge="1" parent="1" source="z-WeCfIhU2ebbsGFk7dm-108">
          <mxGeometry width="50" height="50" relative="1" as="geometry">
            <mxPoint x="540.5099999999999" y="1461" as="sourcePoint" />
            <mxPoint x="540.01" y="1429" as="targetPoint" />
          </mxGeometry>
        </mxCell>
        <UserObject label="" lucidchartObjectId="6zE6u8z6sxOD" id="z-WeCfIhU2ebbsGFk7dm-84">
          <mxCell style="html=1;overflow=block;blockSpacing=1;whiteSpace=wrap;fontSize=16.7;fontColor=#3a414a;spacing=9;strokeColor=#3a414a;strokeOpacity=100;rounded=1;absoluteArcSize=1;arcSize=9;strokeWidth=0.8;" vertex="1" parent="1">
            <mxGeometry x="831.01" y="1340" width="17" height="90" as="geometry" />
          </mxCell>
        </UserObject>
        <mxCell id="z-WeCfIhU2ebbsGFk7dm-175" value="" style="endArrow=none;dashed=1;html=1;rounded=0;fontFamily=Helvetica;fontSize=13;fontColor=default;strokeWidth=2;entryX=0.5;entryY=1;entryDx=0;entryDy=0;startArrow=none;" edge="1" parent="1" source="z-WeCfIhU2ebbsGFk7dm-111">
          <mxGeometry width="50" height="50" relative="1" as="geometry">
            <mxPoint x="839.5099999999998" y="1461" as="sourcePoint" />
            <mxPoint x="839.51" y="1429" as="targetPoint" />
          </mxGeometry>
        </mxCell>
        <UserObject label="" lucidchartObjectId="DwE6evW2TTLC" id="z-WeCfIhU2ebbsGFk7dm-176">
          <mxCell style="html=1;jettySize=18;whiteSpace=wrap;fontSize=13;strokeColor=#3a414a;strokeOpacity=100;strokeWidth=1.5;rounded=1;arcSize=12;edgeStyle=orthogonalEdgeStyle;startArrow=none;endArrow=block;endFill=1;" edge="1" parent="1">
            <mxGeometry width="100" height="100" relative="1" as="geometry">
              <Array as="points" />
              <mxPoint x="548" y="1100" as="sourcePoint" />
              <mxPoint x="831" y="1100" as="targetPoint" />
            </mxGeometry>
          </mxCell>
        </UserObject>
        <mxCell id="z-WeCfIhU2ebbsGFk7dm-177" value="Post Edit parameter" style="text;html=1;resizable=0;labelBackgroundColor=default;align=center;verticalAlign=middle;fontColor=#333333;fontSize=13.3;" vertex="1" parent="z-WeCfIhU2ebbsGFk7dm-176">
          <mxGeometry relative="1" as="geometry" />
        </mxCell>
        <UserObject label="" lucidchartObjectId="DwE6evW2TTLC" id="z-WeCfIhU2ebbsGFk7dm-178">
          <mxCell style="html=1;jettySize=18;whiteSpace=wrap;fontSize=13;strokeColor=#3a414a;strokeOpacity=100;strokeWidth=1.5;rounded=1;arcSize=12;edgeStyle=orthogonalEdgeStyle;startArrow=none;endArrow=block;endFill=1;" edge="1" parent="1">
            <mxGeometry width="100" height="100" relative="1" as="geometry">
              <Array as="points" />
              <mxPoint x="847" y="1100" as="sourcePoint" />
              <mxPoint x="1130" y="1100" as="targetPoint" />
            </mxGeometry>
          </mxCell>
        </UserObject>
        <mxCell id="z-WeCfIhU2ebbsGFk7dm-179" value="Put parameter" style="text;html=1;resizable=0;labelBackgroundColor=default;align=center;verticalAlign=middle;fontColor=#333333;fontSize=13.3;" vertex="1" parent="z-WeCfIhU2ebbsGFk7dm-178">
          <mxGeometry relative="1" as="geometry" />
        </mxCell>
        <mxCell id="z-WeCfIhU2ebbsGFk7dm-183" style="edgeStyle=orthogonalEdgeStyle;rounded=1;orthogonalLoop=1;jettySize=auto;html=1;exitX=1;exitY=0.25;exitDx=0;exitDy=0;labelBorderColor=none;fontFamily=Helvetica;fontSize=1;fontColor=default;targetPerimeterSpacing=0;strokeWidth=1.5;" edge="1" parent="1" source="z-WeCfIhU2ebbsGFk7dm-180">
          <mxGeometry relative="1" as="geometry">
            <mxPoint x="1146.666666666667" y="1150" as="targetPoint" />
            <Array as="points">
              <mxPoint x="1180" y="1102" />
              <mxPoint x="1180" y="1150" />
            </Array>
          </mxGeometry>
        </mxCell>
        <UserObject label="" lucidchartObjectId="5uE6oH6iUdjr" id="z-WeCfIhU2ebbsGFk7dm-180">
          <mxCell style="html=1;overflow=block;blockSpacing=1;whiteSpace=wrap;fontSize=16.7;fontColor=#3a414a;spacing=9;strokeColor=#3a414a;strokeOpacity=100;rounded=1;absoluteArcSize=1;arcSize=9;strokeWidth=0.8;" vertex="1" parent="1">
            <mxGeometry x="1129.5" y="1079" width="17" height="90" as="geometry" />
          </mxCell>
        </UserObject>
        <mxCell id="z-WeCfIhU2ebbsGFk7dm-182" value="" style="endArrow=none;dashed=1;html=1;rounded=0;fontFamily=Helvetica;fontSize=13;fontColor=default;strokeWidth=2;entryX=0.5;entryY=1;entryDx=0;entryDy=0;startArrow=none;" edge="1" parent="1" source="z-WeCfIhU2ebbsGFk7dm-195" target="z-WeCfIhU2ebbsGFk7dm-180">
          <mxGeometry width="50" height="50" relative="1" as="geometry">
            <mxPoint x="1138" y="1200" as="sourcePoint" />
            <mxPoint x="1138" y="146" as="targetPoint" />
          </mxGeometry>
        </mxCell>
        <mxCell id="z-WeCfIhU2ebbsGFk7dm-187" value="Put parameter" style="text;html=1;resizable=0;labelBackgroundColor=default;align=center;verticalAlign=middle;fontColor=#333333;fontSize=13.3;" vertex="1" parent="1">
          <mxGeometry x="1209.999529389808" y="1124.0005595330383" as="geometry" />
        </mxCell>
        <UserObject label="" lucidchartObjectId="5uE6oH6iUdjr" id="z-WeCfIhU2ebbsGFk7dm-190">
          <mxCell style="html=1;overflow=block;blockSpacing=1;whiteSpace=wrap;fontSize=16.7;fontColor=#3a414a;spacing=9;strokeColor=#3a414a;strokeOpacity=100;rounded=1;absoluteArcSize=1;arcSize=9;strokeWidth=0.8;" vertex="1" parent="1">
            <mxGeometry x="830" y="1200" width="17" height="90" as="geometry" />
          </mxCell>
        </UserObject>
        <mxCell id="z-WeCfIhU2ebbsGFk7dm-191" value="" style="endArrow=none;dashed=1;html=1;rounded=0;fontFamily=Helvetica;fontSize=13;fontColor=default;strokeWidth=2;entryX=0.5;entryY=1;entryDx=0;entryDy=0;startArrow=none;" edge="1" parent="1" source="z-WeCfIhU2ebbsGFk7dm-84" target="z-WeCfIhU2ebbsGFk7dm-190">
          <mxGeometry width="50" height="50" relative="1" as="geometry">
            <mxPoint x="837.5" y="1416.9999999999998" as="sourcePoint" />
            <mxPoint x="837.5" y="1169" as="targetPoint" />
          </mxGeometry>
        </mxCell>
        <UserObject label="" lucidchartObjectId="DwE6evW2TTLC" id="z-WeCfIhU2ebbsGFk7dm-193">
          <mxCell style="html=1;jettySize=18;whiteSpace=wrap;fontSize=13;strokeColor=#3a414a;strokeOpacity=100;strokeWidth=1.5;rounded=1;arcSize=12;edgeStyle=orthogonalEdgeStyle;startArrow=none;endArrow=block;endFill=1;" edge="1" parent="1">
            <mxGeometry width="100" height="100" relative="1" as="geometry">
              <Array as="points" />
              <mxPoint x="547.9999999999998" y="1220" as="sourcePoint" />
              <mxPoint x="831.0000000000002" y="1220" as="targetPoint" />
            </mxGeometry>
          </mxCell>
        </UserObject>
        <mxCell id="z-WeCfIhU2ebbsGFk7dm-194" value="Request Model Data Day or Month" style="text;html=1;resizable=0;labelBackgroundColor=default;align=center;verticalAlign=middle;fontColor=#333333;fontSize=13.3;" vertex="1" parent="z-WeCfIhU2ebbsGFk7dm-193">
          <mxGeometry relative="1" as="geometry" />
        </mxCell>
        <UserObject label="" lucidchartObjectId="5uE6oH6iUdjr" id="z-WeCfIhU2ebbsGFk7dm-195">
          <mxCell style="html=1;overflow=block;blockSpacing=1;whiteSpace=wrap;fontSize=16.7;fontColor=#3a414a;spacing=9;strokeColor=#3a414a;strokeOpacity=100;rounded=1;absoluteArcSize=1;arcSize=9;strokeWidth=0.8;" vertex="1" parent="1">
            <mxGeometry x="1129.5" y="1200" width="17" height="90" as="geometry" />
          </mxCell>
        </UserObject>
        <mxCell id="z-WeCfIhU2ebbsGFk7dm-196" value="" style="endArrow=none;dashed=1;html=1;rounded=0;fontFamily=Helvetica;fontSize=13;fontColor=default;strokeWidth=2;entryX=0.5;entryY=1;entryDx=0;entryDy=0;startArrow=none;" edge="1" parent="1" source="z-WeCfIhU2ebbsGFk7dm-106" target="z-WeCfIhU2ebbsGFk7dm-195">
          <mxGeometry width="50" height="50" relative="1" as="geometry">
            <mxPoint x="1138" y="1417" as="sourcePoint" />
            <mxPoint x="1138" y="1168.9999999999998" as="targetPoint" />
          </mxGeometry>
        </mxCell>
        <UserObject label="" lucidchartObjectId="DwE6evW2TTLC" id="z-WeCfIhU2ebbsGFk7dm-197">
          <mxCell style="html=1;jettySize=18;whiteSpace=wrap;fontSize=13;strokeColor=#3a414a;strokeOpacity=100;strokeWidth=1.5;rounded=1;arcSize=12;edgeStyle=orthogonalEdgeStyle;startArrow=none;endArrow=block;endFill=1;" edge="1" parent="1">
            <mxGeometry width="100" height="100" relative="1" as="geometry">
              <Array as="points" />
              <mxPoint x="847.0000000000002" y="1220" as="sourcePoint" />
              <mxPoint x="1130" y="1220" as="targetPoint" />
            </mxGeometry>
          </mxCell>
        </UserObject>
        <mxCell id="z-WeCfIhU2ebbsGFk7dm-198" value="Request Model Data Day or Month" style="text;html=1;resizable=0;labelBackgroundColor=default;align=center;verticalAlign=middle;fontColor=#333333;fontSize=13.3;" vertex="1" parent="z-WeCfIhU2ebbsGFk7dm-197">
          <mxGeometry relative="1" as="geometry" />
        </mxCell>
        <UserObject label="" lucidchartObjectId="iAE676oLfsYu" id="z-WeCfIhU2ebbsGFk7dm-199">
          <mxCell style="html=1;jettySize=18;whiteSpace=wrap;fontSize=13;strokeColor=#3a414a;strokeOpacity=100;dashed=1;fixDash=1;dashPattern=8 8;strokeWidth=1.5;rounded=1;arcSize=12;edgeStyle=orthogonalEdgeStyle;startArrow=none;endArrow=block;endFill=1;" edge="1" parent="1">
            <mxGeometry width="100" height="100" relative="1" as="geometry">
              <Array as="points" />
              <mxPoint x="1129" y="1270" as="sourcePoint" />
              <mxPoint x="847.0000000000002" y="1270" as="targetPoint" />
            </mxGeometry>
          </mxCell>
        </UserObject>
        <mxCell id="z-WeCfIhU2ebbsGFk7dm-200" value="Response Model Data Day or Month" style="text;html=1;resizable=0;labelBackgroundColor=default;align=center;verticalAlign=middle;fontColor=#333333;fontSize=13.3;" vertex="1" parent="z-WeCfIhU2ebbsGFk7dm-199">
          <mxGeometry relative="1" as="geometry" />
        </mxCell>
        <UserObject label="" lucidchartObjectId="iAE676oLfsYu" id="z-WeCfIhU2ebbsGFk7dm-201">
          <mxCell style="html=1;jettySize=18;whiteSpace=wrap;fontSize=13;strokeColor=#3a414a;strokeOpacity=100;dashed=1;fixDash=1;dashPattern=8 8;strokeWidth=1.5;rounded=1;arcSize=12;edgeStyle=orthogonalEdgeStyle;startArrow=none;endArrow=block;endFill=1;" edge="1" parent="1">
            <mxGeometry width="100" height="100" relative="1" as="geometry">
              <Array as="points" />
              <mxPoint x="830" y="1270" as="sourcePoint" />
              <mxPoint x="548.0000000000002" y="1270" as="targetPoint" />
            </mxGeometry>
          </mxCell>
        </UserObject>
        <mxCell id="z-WeCfIhU2ebbsGFk7dm-202" value="Response Model Data Day or Month" style="text;html=1;resizable=0;labelBackgroundColor=default;align=center;verticalAlign=middle;fontColor=#333333;fontSize=13.3;" vertex="1" parent="z-WeCfIhU2ebbsGFk7dm-201">
          <mxGeometry relative="1" as="geometry" />
        </mxCell>
        <UserObject label="" lucidchartObjectId="iAE676oLfsYu" id="z-WeCfIhU2ebbsGFk7dm-203">
          <mxCell style="html=1;jettySize=18;whiteSpace=wrap;fontSize=13;strokeColor=#3a414a;strokeOpacity=100;dashed=1;fixDash=1;dashPattern=8 8;strokeWidth=1.5;rounded=1;arcSize=12;edgeStyle=orthogonalEdgeStyle;startArrow=none;endArrow=block;endFill=1;" edge="1" parent="1">
            <mxGeometry width="100" height="100" relative="1" as="geometry">
              <Array as="points" />
              <mxPoint x="529" y="1270" as="sourcePoint" />
              <mxPoint x="247.00000000000045" y="1270" as="targetPoint" />
            </mxGeometry>
          </mxCell>
        </UserObject>
        <mxCell id="z-WeCfIhU2ebbsGFk7dm-204" value="Display Model Data Day or Month" style="text;html=1;resizable=0;labelBackgroundColor=default;align=center;verticalAlign=middle;fontColor=#333333;fontSize=13.3;" vertex="1" parent="z-WeCfIhU2ebbsGFk7dm-203">
          <mxGeometry relative="1" as="geometry" />
        </mxCell>
      </root>
    </mxGraphModel>
  </diagram>
</mxfile>
